<?xml version="1.0" encoding="UTF-8"?>
<!DOCTYPE svg PUBLIC "-//W3C//DTD SVG 1.1//EN" "http://www.w3.org/Graphics/SVG/1.1/DTD/svg11.dtd">
<svg xmlns="http://www.w3.org/2000/svg" version="1.1" width="512px" height="512px" style="shape-rendering:geometricPrecision; text-rendering:geometricPrecision; image-rendering:optimizeQuality; fill-rule:evenodd; clip-rule:evenodd" xmlns:xlink="http://www.w3.org/1999/xlink">
<g><path style="opacity:0.998" fill="#000000" d="M 120.5,-0.5 C 210.5,-0.5 300.5,-0.5 390.5,-0.5C 392.134,0.971672 393.634,2.63834 395,4.5C 395.5,24.8306 395.667,45.1639 395.5,65.5C 413.836,65.3334 432.17,65.5001 450.5,66C 452.333,67.1667 453.833,68.6667 455,70.5C 455.5,210.833 455.667,351.166 455.5,491.5C 467.171,491.333 478.838,491.5 490.5,492C 495.275,495.655 496.775,500.488 495,506.5C 493.634,508.362 492.134,510.028 490.5,511.5C 333.833,511.5 177.167,511.5 20.5,511.5C 15.7541,507.658 14.2541,502.658 16,496.5C 17.1667,494.667 18.6667,493.167 20.5,492C 32.1619,491.5 43.8286,491.333 55.5,491.5C 55.3333,351.166 55.5,210.833 56,70.5C 57.1667,68.6667 58.6667,67.1667 60.5,66C 78.8303,65.5001 97.1636,65.3334 115.5,65.5C 115.333,45.1639 115.5,24.8306 116,4.5C 117.366,2.63834 118.866,0.971672 120.5,-0.5 Z M 135.5,19.5 C 215.5,19.5 295.5,19.5 375.5,19.5C 375.5,34.8333 375.5,50.1667 375.5,65.5C 295.5,65.5 215.5,65.5 135.5,65.5C 135.5,50.1667 135.5,34.8333 135.5,19.5 Z M 75.5,85.5 C 195.5,85.5 315.5,85.5 435.5,85.5C 435.5,220.833 435.5,356.167 435.5,491.5C 395.5,491.5 355.5,491.5 315.5,491.5C 315.667,451.165 315.5,410.832 315,370.5C 313.833,368.667 312.333,367.167 310.5,366C 273.833,365.333 237.167,365.333 200.5,366C 198.667,367.167 197.167,368.667 196,370.5C 195.5,410.832 195.333,451.165 195.5,491.5C 155.5,491.5 115.5,491.5 75.5,491.5C 75.5,356.167 75.5,220.833 75.5,85.5 Z M 115.5,145.5 C 128.833,145.5 142.167,145.5 155.5,145.5C 155.5,158.833 155.5,172.167 155.5,185.5C 142.167,185.5 128.833,185.5 115.5,185.5C 115.5,172.167 115.5,158.833 115.5,145.5 Z M 235.5,145.5 C 248.833,145.5 262.167,145.5 275.5,145.5C 275.5,158.833 275.5,172.167 275.5,185.5C 262.167,185.5 248.833,185.5 235.5,185.5C 235.5,172.167 235.5,158.833 235.5,145.5 Z M 355.5,145.5 C 368.833,145.5 382.167,145.5 395.5,145.5C 395.5,158.833 395.5,172.167 395.5,185.5C 382.167,185.5 368.833,185.5 355.5,185.5C 355.5,172.167 355.5,158.833 355.5,145.5 Z M 115.5,265.5 C 128.833,265.5 142.167,265.5 155.5,265.5C 155.5,278.833 155.5,292.167 155.5,305.5C 142.167,305.5 128.833,305.5 115.5,305.5C 115.5,292.167 115.5,278.833 115.5,265.5 Z M 235.5,265.5 C 248.833,265.5 262.167,265.5 275.5,265.5C 275.5,278.833 275.5,292.167 275.5,305.5C 262.167,305.5 248.833,305.5 235.5,305.5C 235.5,292.167 235.5,278.833 235.5,265.5 Z M 355.5,265.5 C 368.833,265.5 382.167,265.5 395.5,265.5C 395.5,278.833 395.5,292.167 395.5,305.5C 382.167,305.5 368.833,305.5 355.5,305.5C 355.5,292.167 355.5,278.833 355.5,265.5 Z M 115.5,385.5 C 128.833,385.5 142.167,385.5 155.5,385.5C 155.5,398.833 155.5,412.167 155.5,425.5C 142.167,425.5 128.833,425.5 115.5,425.5C 115.5,412.167 115.5,398.833 115.5,385.5 Z M 215.5,385.5 C 242.167,385.5 268.833,385.5 295.5,385.5C 295.5,420.833 295.5,456.167 295.5,491.5C 285.5,491.5 275.5,491.5 265.5,491.5C 265.667,477.829 265.5,464.163 265,450.5C 261.345,445.725 256.512,444.225 250.5,446C 248.667,447.167 247.167,448.667 246,450.5C 245.5,464.163 245.333,477.829 245.5,491.5C 235.5,491.5 225.5,491.5 215.5,491.5C 215.5,456.167 215.5,420.833 215.5,385.5 Z M 355.5,385.5 C 368.833,385.5 382.167,385.5 395.5,385.5C 395.5,398.833 395.5,412.167 395.5,425.5C 382.167,425.5 368.833,425.5 355.5,425.5C 355.5,412.167 355.5,398.833 355.5,385.5 Z"/></g>
<g><path style="opacity:0.992" fill="#000000" d="M 100.5,125.5 C 123.836,125.333 147.169,125.5 170.5,126C 172.333,127.167 173.833,128.667 175,130.5C 175.667,153.833 175.667,177.167 175,200.5C 173.833,202.333 172.333,203.833 170.5,205C 147.167,205.667 123.833,205.667 100.5,205C 98.6667,203.833 97.1667,202.333 96,200.5C 95.3333,177.167 95.3333,153.833 96,130.5C 97.3657,128.638 98.8657,126.972 100.5,125.5 Z M 115.5,145.5 C 115.5,158.833 115.5,172.167 115.5,185.5C 128.833,185.5 142.167,185.5 155.5,185.5C 155.5,172.167 155.5,158.833 155.5,145.5C 142.167,145.5 128.833,145.5 115.5,145.5 Z"/></g>
<g><path style="opacity:0.992" fill="#000000" d="M 220.5,125.5 C 243.836,125.333 267.169,125.5 290.5,126C 292.333,127.167 293.833,128.667 295,130.5C 295.667,153.833 295.667,177.167 295,200.5C 293.833,202.333 292.333,203.833 290.5,205C 267.167,205.667 243.833,205.667 220.5,205C 218.667,203.833 217.167,202.333 216,200.5C 215.333,177.167 215.333,153.833 216,130.5C 217.366,128.638 218.866,126.972 220.5,125.5 Z M 235.5,145.5 C 235.5,158.833 235.5,172.167 235.5,185.5C 248.833,185.5 262.167,185.5 275.5,185.5C 275.5,172.167 275.5,158.833 275.5,145.5C 262.167,145.5 248.833,145.5 235.5,145.5 Z"/></g>
<g><path style="opacity:0.992" fill="#000000" d="M 340.5,125.5 C 363.836,125.333 387.169,125.5 410.5,126C 412.333,127.167 413.833,128.667 415,130.5C 415.667,153.833 415.667,177.167 415,200.5C 413.833,202.333 412.333,203.833 410.5,205C 387.167,205.667 363.833,205.667 340.5,205C 338.667,203.833 337.167,202.333 336,200.5C 335.333,177.167 335.333,153.833 336,130.5C 337.366,128.638 338.866,126.972 340.5,125.5 Z M 355.5,145.5 C 355.5,158.833 355.5,172.167 355.5,185.5C 368.833,185.5 382.167,185.5 395.5,185.5C 395.5,172.167 395.5,158.833 395.5,145.5C 382.167,145.5 368.833,145.5 355.5,145.5 Z"/></g>
<g><path style="opacity:0.992" fill="#000000" d="M 100.5,245.5 C 123.836,245.333 147.169,245.5 170.5,246C 172.333,247.167 173.833,248.667 175,250.5C 175.667,273.833 175.667,297.167 175,320.5C 173.833,322.333 172.333,323.833 170.5,325C 147.167,325.667 123.833,325.667 100.5,325C 98.6667,323.833 97.1667,322.333 96,320.5C 95.3333,297.167 95.3333,273.833 96,250.5C 97.3657,248.638 98.8657,246.972 100.5,245.5 Z M 115.5,265.5 C 115.5,278.833 115.5,292.167 115.5,305.5C 128.833,305.5 142.167,305.5 155.5,305.5C 155.5,292.167 155.5,278.833 155.5,265.5C 142.167,265.5 128.833,265.5 115.5,265.5 Z"/></g>
<g><path style="opacity:0.992" fill="#000000" d="M 220.5,245.5 C 243.836,245.333 267.169,245.5 290.5,246C 292.333,247.167 293.833,248.667 295,250.5C 295.667,273.833 295.667,297.167 295,320.5C 293.833,322.333 292.333,323.833 290.5,325C 267.167,325.667 243.833,325.667 220.5,325C 218.667,323.833 217.167,322.333 216,320.5C 215.333,297.167 215.333,273.833 216,250.5C 217.366,248.638 218.866,246.972 220.5,245.5 Z M 235.5,265.5 C 235.5,278.833 235.5,292.167 235.5,305.5C 248.833,305.5 262.167,305.5 275.5,305.5C 275.5,292.167 275.5,278.833 275.5,265.5C 262.167,265.5 248.833,265.5 235.5,265.5 Z"/></g>
<g><path style="opacity:0.992" fill="#000000" d="M 340.5,245.5 C 363.836,245.333 387.169,245.5 410.5,246C 412.333,247.167 413.833,248.667 415,250.5C 415.667,273.833 415.667,297.167 415,320.5C 413.833,322.333 412.333,323.833 410.5,325C 387.167,325.667 363.833,325.667 340.5,325C 338.667,323.833 337.167,322.333 336,320.5C 335.333,297.167 335.333,273.833 336,250.5C 337.366,248.638 338.866,246.972 340.5,245.5 Z M 355.5,265.5 C 355.5,278.833 355.5,292.167 355.5,305.5C 368.833,305.5 382.167,305.5 395.5,305.5C 395.5,292.167 395.5,278.833 395.5,265.5C 382.167,265.5 368.833,265.5 355.5,265.5 Z"/></g>
<g><path style="opacity:0.992" fill="#000000" d="M 100.5,365.5 C 123.836,365.333 147.169,365.5 170.5,366C 172.333,367.167 173.833,368.667 175,370.5C 175.667,393.833 175.667,417.167 175,440.5C 173.833,442.333 172.333,443.833 170.5,445C 147.167,445.667 123.833,445.667 100.5,445C 98.6667,443.833 97.1667,442.333 96,440.5C 95.3333,417.167 95.3333,393.833 96,370.5C 97.3657,368.638 98.8657,366.972 100.5,365.5 Z M 115.5,385.5 C 115.5,398.833 115.5,412.167 115.5,425.5C 128.833,425.5 142.167,425.5 155.5,425.5C 155.5,412.167 155.5,398.833 155.5,385.5C 142.167,385.5 128.833,385.5 115.5,385.5 Z"/></g>
<g><path style="opacity:0.992" fill="#000000" d="M 340.5,365.5 C 363.836,365.333 387.169,365.5 410.5,366C 412.333,367.167 413.833,368.667 415,370.5C 415.667,393.833 415.667,417.167 415,440.5C 413.833,442.333 412.333,443.833 410.5,445C 387.167,445.667 363.833,445.667 340.5,445C 338.667,443.833 337.167,442.333 336,440.5C 335.333,417.167 335.333,393.833 336,370.5C 337.366,368.638 338.866,366.972 340.5,365.5 Z M 355.5,385.5 C 355.5,398.833 355.5,412.167 355.5,425.5C 368.833,425.5 382.167,425.5 395.5,425.5C 395.5,412.167 395.5,398.833 395.5,385.5C 382.167,385.5 368.833,385.5 355.5,385.5 Z"/></g>
<g><path style="opacity:0.891" fill="#000000" d="M 250.5,405.5 C 262.324,403.824 267.158,408.824 265,420.5C 261.345,425.275 256.512,426.775 250.5,425C 245.725,421.345 244.225,416.512 246,410.5C 247.366,408.638 248.866,406.972 250.5,405.5 Z"/></g>
</svg>
