<?xml version="1.0" encoding="UTF-8"?>
<!DOCTYPE svg PUBLIC "-//W3C//DTD SVG 1.1//EN" "http://www.w3.org/Graphics/SVG/1.1/DTD/svg11.dtd">
<svg xmlns="http://www.w3.org/2000/svg" version="1.1" width="512px" height="512px" style="shape-rendering:geometricPrecision; text-rendering:geometricPrecision; image-rendering:optimizeQuality; fill-rule:evenodd; clip-rule:evenodd" xmlns:xlink="http://www.w3.org/1999/xlink">
<g><path style="opacity:0.963" fill="#000000" d="M 87.5,-0.5 C 199.5,-0.5 311.5,-0.5 423.5,-0.5C 428.234,1.73934 431.401,5.40601 433,10.5C 433.667,19.1667 433.667,27.8333 433,36.5C 430.066,45.3885 423.9,49.3885 414.5,48.5C 414.667,83.1683 414.5,117.835 414,152.5C 409.333,157.833 404.667,157.833 400,152.5C 399.5,117.835 399.333,83.1683 399.5,48.5C 303.5,48.5 207.5,48.5 111.5,48.5C 111.5,122.833 111.5,197.167 111.5,271.5C 116.5,271.5 121.5,271.5 126.5,271.5C 126.333,205.166 126.5,138.832 127,72.5C 128.927,67.5723 132.427,64.4056 137.5,63C 170.833,62.3333 204.167,62.3333 237.5,63C 242.974,64.4735 246.474,67.9735 248,73.5C 248.5,139.499 248.667,205.499 248.5,271.5C 253.167,271.5 257.833,271.5 262.5,271.5C 262.333,205.499 262.5,139.499 263,73.5C 264.526,67.9735 268.026,64.4735 273.5,63C 306.833,62.3333 340.167,62.3333 373.5,63C 378.573,64.4056 382.073,67.5723 384,72.5C 384.5,138.832 384.667,205.166 384.5,271.5C 389.5,271.5 394.5,271.5 399.5,271.5C 399.333,240.832 399.5,210.165 400,179.5C 404.667,174.167 409.333,174.167 414,179.5C 414.5,210.165 414.667,240.832 414.5,271.5C 443.502,271.333 472.502,271.5 501.5,272C 506.02,274.022 509.353,277.189 511.5,281.5C 511.5,291.167 511.5,300.833 511.5,310.5C 508.161,316.148 503.161,319.482 496.5,320.5C 496.167,367.838 496.5,415.171 497.5,462.5C 503.679,463.905 508.346,467.238 511.5,472.5C 511.5,482.167 511.5,491.833 511.5,501.5C 509.167,505.833 505.833,509.167 501.5,511.5C 423.833,511.5 346.167,511.5 268.5,511.5C 264.537,506.666 264.537,501.832 268.5,497C 344.167,496.667 419.833,496.333 495.5,496C 496.475,490.259 496.808,484.425 496.5,478.5C 335.833,478.5 175.167,478.5 14.5,478.5C 14.1918,484.425 14.5251,490.259 15.5,496C 91.1667,496.333 166.833,496.667 242.5,497C 246.463,501.832 246.463,506.666 242.5,511.5C 164.833,511.5 87.1667,511.5 9.5,511.5C 5.16667,509.167 1.83333,505.833 -0.5,501.5C -0.5,491.833 -0.5,482.167 -0.5,472.5C 2.65409,467.238 7.32076,463.905 13.5,462.5C 14.4999,415.171 14.8333,367.838 14.5,320.5C 7.56172,319.878 2.56172,316.544 -0.5,310.5C -0.5,300.833 -0.5,291.167 -0.5,281.5C 1.6467,277.189 4.98004,274.022 9.5,272C 38.4981,271.5 67.4981,271.333 96.5,271.5C 96.5,197.167 96.5,122.833 96.5,48.5C 87.1003,49.3885 80.9336,45.3885 78,36.5C 77.3333,27.8333 77.3333,19.1667 78,10.5C 79.5992,5.40601 82.7658,1.73934 87.5,-0.5 Z M 93.5,14.5 C 201.5,14.5 309.5,14.5 417.5,14.5C 417.5,20.5 417.5,26.5 417.5,32.5C 309.5,32.5 201.5,32.5 93.5,32.5C 93.5,26.5 93.5,20.5 93.5,14.5 Z M 141.5,78.5 C 171.833,78.5 202.167,78.5 232.5,78.5C 232.5,142.833 232.5,207.167 232.5,271.5C 202.167,271.5 171.833,271.5 141.5,271.5C 141.5,207.167 141.5,142.833 141.5,78.5 Z M 278.5,78.5 C 308.833,78.5 339.167,78.5 369.5,78.5C 369.5,142.833 369.5,207.167 369.5,271.5C 339.167,271.5 308.833,271.5 278.5,271.5C 278.5,207.167 278.5,142.833 278.5,78.5 Z M 14.5,287.5 C 175.167,287.5 335.833,287.5 496.5,287.5C 496.5,293.167 496.5,298.833 496.5,304.5C 335.833,304.5 175.167,304.5 14.5,304.5C 14.5,298.833 14.5,293.167 14.5,287.5 Z M 30.5,320.5 C 180.5,320.5 330.5,320.5 480.5,320.5C 480.5,367.833 480.5,415.167 480.5,462.5C 330.5,462.5 180.5,462.5 30.5,462.5C 30.5,415.167 30.5,367.833 30.5,320.5 Z M 66.5,356.5 C 73.1667,356.5 79.8333,356.5 86.5,356.5C 86.5,379.833 86.5,403.167 86.5,426.5C 79.8333,426.5 73.1667,426.5 66.5,426.5C 66.5,403.167 66.5,379.833 66.5,356.5 Z M 138.5,356.5 C 145.167,356.5 151.833,356.5 158.5,356.5C 158.5,379.833 158.5,403.167 158.5,426.5C 151.833,426.5 145.167,426.5 138.5,426.5C 138.5,403.167 138.5,379.833 138.5,356.5 Z M 209.5,356.5 C 216.167,356.5 222.833,356.5 229.5,356.5C 229.5,379.833 229.5,403.167 229.5,426.5C 222.833,426.5 216.167,426.5 209.5,426.5C 209.5,403.167 209.5,379.833 209.5,356.5 Z M 281.5,356.5 C 288.167,356.5 294.833,356.5 301.5,356.5C 301.5,379.833 301.5,403.167 301.5,426.5C 294.833,426.5 288.167,426.5 281.5,426.5C 281.5,403.167 281.5,379.833 281.5,356.5 Z M 353.5,356.5 C 360.09,356.189 366.59,356.522 373,357.5C 373.667,380.167 373.667,402.833 373,425.5C 366.59,426.478 360.09,426.811 353.5,426.5C 353.5,403.167 353.5,379.833 353.5,356.5 Z M 424.5,356.5 C 431.167,356.5 437.833,356.5 444.5,356.5C 444.5,379.833 444.5,403.167 444.5,426.5C 437.833,426.5 431.167,426.5 424.5,426.5C 424.5,403.167 424.5,379.833 424.5,356.5 Z"/></g>
<g><path style="opacity:0.887" fill="#000000" d="M 334.5,89.5 C 336.989,89.2978 339.323,89.7978 341.5,91C 346,95.5 350.5,100 355,104.5C 357.833,115 354,118.833 343.5,116C 339,111.5 334.5,107 330,102.5C 327.552,96.7403 329.052,92.407 334.5,89.5 Z"/></g>
<g><path style="opacity:0.878" fill="#000000" d="M 306.5,104.5 C 309.978,104.184 313.312,104.684 316.5,106C 324.333,113.833 332.167,121.667 340,129.5C 343.455,133.84 343.288,138.007 339.5,142C 335.258,144.202 331.258,143.869 327.5,141C 320,133.5 312.5,126 305,118.5C 301.399,113.353 301.899,108.686 306.5,104.5 Z"/></g>
<g><path style="opacity:0.934" fill="#000000" d="M 62.5,340.5 C 71.8393,340.334 81.1726,340.5 90.5,341C 96.3333,342.833 100.167,346.667 102,352.5C 102.667,378.5 102.667,404.5 102,430.5C 100.257,435.91 96.7575,439.744 91.5,442C 81.8333,442.667 72.1667,442.667 62.5,442C 56.2602,440.092 52.4269,435.925 51,429.5C 50.3333,404.167 50.3333,378.833 51,353.5C 52.6169,347.058 56.4503,342.725 62.5,340.5 Z M 66.5,356.5 C 66.5,379.833 66.5,403.167 66.5,426.5C 73.1667,426.5 79.8333,426.5 86.5,426.5C 86.5,403.167 86.5,379.833 86.5,356.5C 79.8333,356.5 73.1667,356.5 66.5,356.5 Z"/></g>
<g><path style="opacity:0.934" fill="#000000" d="M 134.5,340.5 C 143.839,340.334 153.173,340.5 162.5,341C 168.74,342.908 172.573,347.075 174,353.5C 174.667,378.833 174.667,404.167 174,429.5C 172.573,435.925 168.74,440.092 162.5,442C 152.833,442.667 143.167,442.667 133.5,442C 128.243,439.744 124.743,435.91 123,430.5C 122.333,404.5 122.333,378.5 123,352.5C 125.019,346.65 128.852,342.65 134.5,340.5 Z M 138.5,356.5 C 138.5,379.833 138.5,403.167 138.5,426.5C 145.167,426.5 151.833,426.5 158.5,426.5C 158.5,403.167 158.5,379.833 158.5,356.5C 151.833,356.5 145.167,356.5 138.5,356.5 Z"/></g>
<g><path style="opacity:0.935" fill="#000000" d="M 205.5,340.5 C 214.839,340.334 224.173,340.5 233.5,341C 238.91,342.743 242.744,346.243 245,351.5C 245.667,378.167 245.667,404.833 245,431.5C 242.833,436.333 239.333,439.833 234.5,442C 224.833,442.667 215.167,442.667 205.5,442C 200.427,440.594 196.927,437.428 195,432.5C 193.37,406.549 193.037,380.549 194,354.5C 195.142,347.533 198.975,342.866 205.5,340.5 Z M 209.5,356.5 C 209.5,379.833 209.5,403.167 209.5,426.5C 216.167,426.5 222.833,426.5 229.5,426.5C 229.5,403.167 229.5,379.833 229.5,356.5C 222.833,356.5 216.167,356.5 209.5,356.5 Z"/></g>
<g><path style="opacity:0.934" fill="#000000" d="M 277.5,340.5 C 286.839,340.334 296.173,340.5 305.5,341C 311.333,342.833 315.167,346.667 317,352.5C 317.667,378.5 317.667,404.5 317,430.5C 315.257,435.91 311.757,439.744 306.5,442C 296.833,442.667 287.167,442.667 277.5,442C 271.667,440.167 267.833,436.333 266,430.5C 265.333,404.833 265.333,379.167 266,353.5C 267.617,347.058 271.45,342.725 277.5,340.5 Z M 281.5,356.5 C 281.5,379.833 281.5,403.167 281.5,426.5C 288.167,426.5 294.833,426.5 301.5,426.5C 301.5,403.167 301.5,379.833 301.5,356.5C 294.833,356.5 288.167,356.5 281.5,356.5 Z"/></g>
<g><path style="opacity:0.935" fill="#000000" d="M 348.5,340.5 C 358.172,340.334 367.839,340.5 377.5,341C 382.598,342.433 386.098,345.6 388,350.5C 389.609,375.798 389.942,401.131 389,426.5C 388.431,434.155 384.598,439.321 377.5,442C 367.833,442.667 358.167,442.667 348.5,442C 343.333,440.167 339.833,436.667 338,431.5C 337.333,404.833 337.333,378.167 338,351.5C 340.357,346.645 343.857,342.979 348.5,340.5 Z M 353.5,356.5 C 353.5,379.833 353.5,403.167 353.5,426.5C 360.09,426.811 366.59,426.478 373,425.5C 373.667,402.833 373.667,380.167 373,357.5C 366.59,356.522 360.09,356.189 353.5,356.5 Z"/></g>
<g><path style="opacity:0.933" fill="#000000" d="M 420.5,340.5 C 429.839,340.334 439.173,340.5 448.5,341C 454.333,342.833 458.167,346.667 460,352.5C 460.667,378.5 460.667,404.5 460,430.5C 458.167,436.333 454.333,440.167 448.5,442C 439.167,442.667 429.833,442.667 420.5,442C 414.667,440.167 410.833,436.333 409,430.5C 408.333,404.5 408.333,378.5 409,352.5C 411.019,346.65 414.852,342.65 420.5,340.5 Z M 424.5,356.5 C 424.5,379.833 424.5,403.167 424.5,426.5C 431.167,426.5 437.833,426.5 444.5,426.5C 444.5,403.167 444.5,379.833 444.5,356.5C 437.833,356.5 431.167,356.5 424.5,356.5 Z"/></g>
</svg>
