<?xml version="1.0" encoding="UTF-8"?>
<!DOCTYPE svg PUBLIC "-//W3C//DTD SVG 1.1//EN" "http://www.w3.org/Graphics/SVG/1.1/DTD/svg11.dtd">
<svg xmlns="http://www.w3.org/2000/svg" version="1.1" width="512px" height="512px" style="shape-rendering:geometricPrecision; text-rendering:geometricPrecision; image-rendering:optimizeQuality; fill-rule:evenodd; clip-rule:evenodd" xmlns:xlink="http://www.w3.org/1999/xlink">
<g><path style="opacity:0.992" fill="#d19c15" d="M 69.5,30.5 C 193.5,30.3333 317.5,30.5 441.5,31C 454.181,35.0151 462.014,43.5151 465,56.5C 465.5,63.4921 465.666,70.4921 465.5,77.5C 325.5,77.5 185.5,77.5 45.5,77.5C 45.3337,70.4921 45.5004,63.4921 46,56.5C 49.1746,43.4977 57.0079,34.8311 69.5,30.5 Z"/></g>
<g><path style="opacity:0.969" fill="#d19c15" d="M 34.5,91.5 C 49.8333,91.5 65.1667,91.5 80.5,91.5C 74.7712,110.686 68.4379,129.686 61.5,148.5C 41.5083,149.666 21.5083,149.833 1.5,149C 10.1282,131.577 18.6282,114.077 27,96.5C 29.4256,94.5476 31.9256,92.881 34.5,91.5 Z"/></g>
<g><path style="opacity:0.964" fill="#d19c15" d="M 95.5,91.5 C 112.833,91.5 130.167,91.5 147.5,91.5C 144.092,110.876 140.425,130.209 136.5,149.5C 116.489,149.833 96.4889,149.5 76.5,148.5C 83.0387,129.55 89.3721,110.55 95.5,91.5 Z"/></g>
<g><path style="opacity:0.958" fill="#d19c15" d="M 162.5,91.5 C 179.833,91.5 197.167,91.5 214.5,91.5C 213.633,111.173 212.633,130.84 211.5,150.5C 191.167,150.5 170.833,150.5 150.5,150.5C 154.501,130.829 158.501,111.162 162.5,91.5 Z"/></g>
<g><path style="opacity:0.959" fill="#d19c15" d="M 229.5,91.5 C 247.077,91.1746 264.577,91.5079 282,92.5C 283.41,111.823 284.577,131.156 285.5,150.5C 265.5,150.5 245.5,150.5 225.5,150.5C 226.392,130.779 227.726,111.112 229.5,91.5 Z"/></g>
<g><path style="opacity:0.958" fill="#d19c15" d="M 296.5,91.5 C 313.846,91.1672 331.179,91.5005 348.5,92.5C 352.884,111.754 356.884,131.088 360.5,150.5C 340.167,150.5 319.833,150.5 299.5,150.5C 298.456,130.836 297.456,111.169 296.5,91.5 Z"/></g>
<g><path style="opacity:0.957" fill="#d19c15" d="M 363.5,91.5 C 380.846,91.1672 398.179,91.5005 415.5,92.5C 422.241,111.722 428.574,131.055 434.5,150.5C 414.5,150.5 394.5,150.5 374.5,150.5C 370.703,130.851 367.037,111.184 363.5,91.5 Z"/></g>
<g><path style="opacity:0.955" fill="#d19c15" d="M 430.5,91.5 C 444.837,91.3334 459.171,91.5001 473.5,92C 478.151,92.7416 481.984,94.9083 485,98.5C 493.311,115.621 501.478,132.788 509.5,150C 489.492,150.833 469.492,150.666 449.5,149.5C 442.759,130.278 436.426,110.945 430.5,91.5 Z"/></g>
<g><path style="opacity:0.966" fill="#d19c15" d="M -0.5,164.5 C 19.5,164.5 39.5,164.5 59.5,164.5C 58.5858,192.926 44.2525,204.426 16.5,199C 8.97856,195.311 3.31189,189.811 -0.5,182.5C -0.5,176.5 -0.5,170.5 -0.5,164.5 Z"/></g>
<g><path style="opacity:0.949" fill="#d19c15" d="M 73.5,164.5 C 93.8333,164.5 114.167,164.5 134.5,164.5C 134.97,191.199 121.97,203.032 95.5,200C 79.3884,193.701 72.0551,181.868 73.5,164.5 Z"/></g>
<g><path style="opacity:0.946" fill="#d19c15" d="M 148.5,164.5 C 169.167,164.5 189.833,164.5 210.5,164.5C 212.037,186.952 201.704,199.285 179.5,201.5C 158.059,198.71 147.726,186.377 148.5,164.5 Z"/></g>
<g><path style="opacity:0.944" fill="#d19c15" d="M 224.5,164.5 C 245.167,164.5 265.833,164.5 286.5,164.5C 287.624,186.645 277.29,198.979 255.5,201.5C 233.71,198.979 223.376,186.645 224.5,164.5 Z"/></g>
<g><path style="opacity:0.945" fill="#d19c15" d="M 300.5,164.5 C 321.167,164.5 341.833,164.5 362.5,164.5C 363.284,186.368 352.951,198.701 331.5,201.5C 309.296,199.285 298.963,186.952 300.5,164.5 Z"/></g>
<g><path style="opacity:0.95" fill="#d19c15" d="M 376.5,164.5 C 396.833,164.5 417.167,164.5 437.5,164.5C 439.16,186.667 428.993,199.001 407,201.5C 385.007,199.001 374.84,186.667 376.5,164.5 Z"/></g>
<g><path style="opacity:0.949" fill="#d19c15" d="M 511.5,164.5 C 511.5,170.833 511.5,177.167 511.5,183.5C 499.827,202.17 484.161,206.336 464.5,196C 454.613,187.85 450.28,177.35 451.5,164.5C 471.5,164.5 491.5,164.5 511.5,164.5 Z"/></g>
<g><path style="opacity:0.988" fill="#d19c15" d="M 65.5,194.5 C 82.7826,216.16 103.783,220.66 128.5,208C 133.315,204.352 137.648,200.185 141.5,195.5C 158.542,216.426 179.209,220.926 203.5,209C 208.649,205.018 213.315,200.518 217.5,195.5C 236.432,218.061 258.432,221.561 283.5,206C 287.044,202.625 290.377,199.125 293.5,195.5C 308.971,215.035 328.304,220.201 351.5,211C 358.582,207.084 364.582,201.917 369.5,195.5C 387.438,217.712 408.771,221.546 433.5,207C 437.725,203.73 441.392,199.897 444.5,195.5C 447.375,198.72 450.375,201.887 453.5,205C 457.118,207.974 461.118,210.141 465.5,211.5C 465.5,285.167 465.5,358.833 465.5,432.5C 476.668,429.839 484.834,433.505 490,443.5C 490.5,455.829 490.667,468.162 490.5,480.5C 333.833,480.5 177.167,480.5 20.5,480.5C 20.3335,468.162 20.5001,455.829 21,443.5C 26.1657,433.505 34.3323,429.839 45.5,432.5C 45.3333,358.833 45.5,285.166 46,211.5C 54.1997,207.801 60.6997,202.135 65.5,194.5 Z M 292.5,257.5 C 325.835,257.333 359.168,257.5 392.5,258C 398.317,258.15 402.15,260.984 404,266.5C 404.667,299.167 404.667,331.833 404,364.5C 402.542,366.96 400.709,369.127 398.5,371C 362.227,372.647 325.893,372.981 289.5,372C 285.333,370.5 282.5,367.667 281,363.5C 280.333,331.5 280.333,299.5 281,267.5C 282.582,261.409 286.415,258.076 292.5,257.5 Z M 113.5,261.5 C 143.835,261.333 174.168,261.5 204.5,262C 212.155,263.655 217.321,268.155 220,275.5C 220.5,327.832 220.667,380.166 220.5,432.5C 179.5,432.5 138.5,432.5 97.5,432.5C 97.3333,380.832 97.5,329.166 98,277.5C 100.015,268.986 105.182,263.653 113.5,261.5 Z"/></g>
</svg>
