<?xml version="1.0" encoding="UTF-8"?>
<!DOCTYPE svg PUBLIC "-//W3C//DTD SVG 1.1//EN" "http://www.w3.org/Graphics/SVG/1.1/DTD/svg11.dtd">
<svg xmlns="http://www.w3.org/2000/svg" version="1.1" width="512px" height="512px" style="shape-rendering:geometricPrecision; text-rendering:geometricPrecision; image-rendering:optimizeQuality; fill-rule:evenodd; clip-rule:evenodd" xmlns:xlink="http://www.w3.org/1999/xlink">
<g><path style="opacity:0.943" fill="#d19c15" d="M 109.5,22.5 C 177.558,22.0101 245.558,22.5101 313.5,24C 324.41,28.653 330.91,36.8197 333,48.5C 333.333,60.8333 333.667,73.1667 334,85.5C 341.424,89.1285 348.924,92.6285 356.5,96C 367.483,103.129 372.816,113.296 372.5,126.5C 383.838,126.333 395.172,126.5 406.5,127C 408.726,128.227 410.226,130.061 411,132.5C 411.667,163.5 411.667,194.5 411,225.5C 408.002,247.998 395.169,259.998 372.5,261.5C 372.667,308.501 372.5,355.501 372,402.5C 370.234,417.098 362.401,426.765 348.5,431.5C 347.501,444.817 347.167,458.15 347.5,471.5C 373.833,471.5 400.167,471.5 426.5,471.5C 426.5,441.833 426.5,412.167 426.5,382.5C 418.747,382.896 411.08,382.396 403.5,381C 397.333,378.833 393.167,374.667 391,368.5C 389.371,342.883 389.037,317.216 390,291.5C 392.003,283.498 396.836,277.998 404.5,275C 418.295,273.89 432.128,273.39 446,273.5C 459.872,273.39 473.705,273.89 487.5,275C 495.641,278.137 500.474,283.97 502,292.5C 502.952,317.875 502.619,343.208 501,368.5C 498.833,374.667 494.667,378.833 488.5,381C 480.585,382.401 472.585,382.901 464.5,382.5C 464.5,412.167 464.5,441.833 464.5,471.5C 475.172,471.333 485.839,471.5 496.5,472C 503.527,476.138 504.194,481.138 498.5,487C 336.833,487.667 175.167,487.667 13.5,487C 7.72739,481.101 8.39406,476.101 15.5,472C 34.4971,471.5 53.4971,471.333 72.5,471.5C 72.8325,458.15 72.4992,444.817 71.5,431.5C 58.0607,426.892 50.2273,417.559 48,403.5C 47.5,356.168 47.3333,308.835 47.5,261.5C 26.2834,259.784 13.7834,248.45 10,227.5C 9.33333,195.833 9.33333,164.167 10,132.5C 10.6853,129.943 12.1853,128.109 14.5,127C 25.495,126.5 36.495,126.333 47.5,126.5C 47.1867,114.294 51.8533,104.46 61.5,97C 69.684,93.163 77.8507,89.3297 86,85.5C 86.3333,72.8333 86.6667,60.1667 87,47.5C 89.8375,34.8355 97.3375,26.5021 109.5,22.5 Z M 113.5,38.5 C 177.834,38.3333 242.168,38.5 306.5,39C 311.026,40.859 314.192,44.0256 316,48.5C 316.667,58.8333 316.667,69.1667 316,79.5C 245.198,54.1775 174.365,54.1775 103.5,79.5C 102.335,70.1845 102.168,60.8511 103,51.5C 104.496,45.5085 107.996,41.1752 113.5,38.5 Z M 186.5,77.5 C 244.37,74.1369 299.037,85.6369 350.5,112C 352.377,114.251 353.877,116.751 355,119.5C 355.667,214.5 355.667,309.5 355,404.5C 352.833,409.333 349.333,412.833 344.5,415C 255.89,416.659 167.223,416.992 78.5,416C 72.1829,414.353 67.6829,410.52 65,404.5C 63.8617,379.034 63.3617,353.534 63.5,328C 63.6667,304.5 63.8333,281 64,257.5C 64.4017,256.128 64.9017,254.795 65.5,253.5C 64.9017,252.205 64.4017,250.872 64,249.5C 63.3333,207.833 63.3333,166.167 64,124.5C 64.79,115.372 69.6233,109.539 78.5,107C 113.085,91.5201 149.085,81.6867 186.5,77.5 Z M 26.5,142.5 C 33.5,142.5 40.5,142.5 47.5,142.5C 47.8332,176.84 47.4999,211.173 46.5,245.5C 36.7199,243.551 30.2199,237.884 27,228.5C 26.5,199.835 26.3334,171.169 26.5,142.5 Z M 372.5,142.5 C 379.833,142.5 387.167,142.5 394.5,142.5C 394.667,171.169 394.5,199.835 394,228.5C 390.527,238.804 383.36,244.47 372.5,245.5C 372.5,211.167 372.5,176.833 372.5,142.5 Z M 101.5,165.5 C 173.167,165.5 244.833,165.5 316.5,165.5C 316.833,205.172 316.5,244.839 315.5,284.5C 244.153,314.135 172.987,313.801 102,283.5C 101.5,244.168 101.333,204.835 101.5,165.5 Z M 409.5,290.5 C 434.59,290.019 459.59,290.519 484.5,292C 485.66,315.761 485.827,339.594 485,363.5C 484.097,364.701 482.931,365.535 481.5,366C 457.079,366.98 432.746,366.647 408.5,365C 408,364.5 407.5,364 407,363.5C 406.333,339.833 406.333,316.167 407,292.5C 407.995,291.934 408.828,291.267 409.5,290.5 Z M 112.5,349.5 C 126.141,350.8 130.641,357.8 126,370.5C 117.542,378.875 109.875,378.208 103,368.5C 100.62,359.383 103.787,353.05 112.5,349.5 Z M 302.5,349.5 C 316.226,351.278 320.393,358.612 315,371.5C 307.034,378.621 299.701,377.954 293,369.5C 289.569,359.603 292.736,352.936 302.5,349.5 Z M 183.5,358.5 C 201.17,358.333 218.836,358.5 236.5,359C 239.573,359.739 241.74,361.572 243,364.5C 243.791,368.926 243.457,373.259 242,377.5C 241.097,378.701 239.931,379.535 238.5,380C 219.5,380.667 200.5,380.667 181.5,380C 179.667,378.833 178.167,377.333 177,375.5C 176.333,371.833 176.333,368.167 177,364.5C 178.436,361.558 180.603,359.558 183.5,358.5 Z M 442.5,382.5 C 444.5,382.5 446.5,382.5 448.5,382.5C 448.5,412.167 448.5,441.833 448.5,471.5C 446.5,471.5 444.5,471.5 442.5,471.5C 442.5,441.833 442.5,412.167 442.5,382.5 Z M 88.5,432.5 C 101.167,432.5 113.833,432.5 126.5,432.5C 126.667,444.838 126.5,457.171 126,469.5C 125.5,470 125,470.5 124.5,471C 113.167,471.667 101.833,471.667 90.5,471C 90,470.5 89.5,470 89,469.5C 88.5001,457.171 88.3335,444.838 88.5,432.5 Z M 142.5,432.5 C 187.833,432.5 233.167,432.5 278.5,432.5C 278.5,445.5 278.5,458.5 278.5,471.5C 233.167,471.5 187.833,471.5 142.5,471.5C 142.5,458.5 142.5,445.5 142.5,432.5 Z M 294.5,432.5 C 306.833,432.5 319.167,432.5 331.5,432.5C 331.667,444.505 331.5,456.505 331,468.5C 330.626,469.416 330.126,470.25 329.5,471C 318.5,471.667 307.5,471.667 296.5,471C 296,470.5 295.5,470 295,469.5C 294.5,457.171 294.333,444.838 294.5,432.5 Z"/></g>
<g><path style="opacity:0.925" fill="#d19c15" d="M 196.5,90.5 C 228.154,89.3313 259.154,93.1646 289.5,102C 295.587,109.061 294.254,114.227 285.5,117.5C 235.499,102.835 185.499,102.835 135.5,117.5C 129.017,116.531 126.517,112.865 128,106.5C 128.574,104.508 129.741,103.008 131.5,102C 152.869,95.69 174.536,91.8566 196.5,90.5 Z"/></g>
<g><path style="opacity:0.942" fill="#d19c15" d="M 89.5,149.5 C 169.501,149.333 249.501,149.5 329.5,150C 331.049,151.214 332.215,152.714 333,154.5C 333.667,200.167 333.667,245.833 333,291.5C 332.333,292.833 331.667,294.167 331,295.5C 250.259,332.593 169.426,332.76 88.5,296C 87.2986,295.097 86.4652,293.931 86,292.5C 85.3333,246.5 85.3333,200.5 86,154.5C 86.9973,152.677 88.1639,151.01 89.5,149.5 Z M 101.5,165.5 C 101.333,204.835 101.5,244.168 102,283.5C 172.987,313.801 244.153,314.135 315.5,284.5C 316.5,244.839 316.833,205.172 316.5,165.5C 244.833,165.5 173.167,165.5 101.5,165.5 Z"/></g>
<g><path style="opacity:0.931" fill="#d19c15" d="M 108.5,333.5 C 134.144,332.644 145.978,344.977 144,370.5C 139.52,384.582 129.853,391.916 115,392.5C 96.843,391.01 87.0097,381.176 85.5,363C 86.6528,348.021 94.3195,338.188 108.5,333.5 Z M 112.5,349.5 C 103.787,353.05 100.62,359.383 103,368.5C 109.875,378.208 117.542,378.875 126,370.5C 130.641,357.8 126.141,350.8 112.5,349.5 Z"/></g>
<g><path style="opacity:0.928" fill="#d19c15" d="M 298.5,333.5 C 315.055,331.573 326.555,338.24 333,353.5C 336.881,372.575 329.715,385.409 311.5,392C 289.742,394.233 277.408,384.566 274.5,363C 275.754,347.588 283.754,337.754 298.5,333.5 Z M 302.5,349.5 C 292.736,352.936 289.569,359.603 293,369.5C 299.701,377.954 307.034,378.621 315,371.5C 320.393,358.612 316.226,351.278 302.5,349.5 Z"/></g>
<g><path style="opacity:0.945" fill="#d19c15" d="M 179.5,342.5 C 199.836,342.333 220.169,342.5 240.5,343C 250.188,345.097 256.355,350.93 259,360.5C 262.215,373.372 259.049,384.205 249.5,393C 247.283,394.275 244.949,395.275 242.5,396C 220.833,396.667 199.167,396.667 177.5,396C 162.06,389.088 156.56,377.255 161,360.5C 163.789,350.875 169.956,344.875 179.5,342.5 Z M 183.5,358.5 C 180.603,359.558 178.436,361.558 177,364.5C 176.333,368.167 176.333,371.833 177,375.5C 178.167,377.333 179.667,378.833 181.5,380C 200.5,380.667 219.5,380.667 238.5,380C 239.931,379.535 241.097,378.701 242,377.5C 243.457,373.259 243.791,368.926 243,364.5C 241.74,361.572 239.573,359.739 236.5,359C 218.836,358.5 201.17,358.333 183.5,358.5 Z"/></g>
</svg>
