<?xml version="1.0" encoding="UTF-8"?>
<!DOCTYPE svg PUBLIC "-//W3C//DTD SVG 1.1//EN" "http://www.w3.org/Graphics/SVG/1.1/DTD/svg11.dtd">
<svg xmlns="http://www.w3.org/2000/svg" version="1.1" width="512px" height="512px" style="shape-rendering:geometricPrecision; text-rendering:geometricPrecision; image-rendering:optimizeQuality; fill-rule:evenodd; clip-rule:evenodd" xmlns:xlink="http://www.w3.org/1999/xlink">
<g><path style="opacity:0.982" fill="#000000" d="M 106.5,6.5 C 117.61,6.44379 128.277,8.61046 138.5,13C 230.577,46.4699 322.577,80.1366 414.5,114C 395.579,123.932 376.912,134.266 358.5,145C 347.926,148.674 337.593,148.008 327.5,143C 297.5,132 267.5,121 237.5,110C 226.266,107.034 215.599,108.367 205.5,114C 183.167,129 160.833,144 138.5,159C 129.397,162.417 120.397,162.083 111.5,158C 85.4228,148.53 59.4228,138.863 33.5,129C 31.9903,127.649 30.9903,125.982 30.5,124C 41.2495,93.6698 52.4161,63.5031 64,33.5C 74.1486,18.0177 88.3153,9.01772 106.5,6.5 Z"/></g>
<g><path style="opacity:0.978" fill="#000000" d="M 218.5,119.5 C 223.179,119.334 227.845,119.501 232.5,120C 263.907,131.079 295.24,142.246 326.5,153.5C 311.911,194.765 297.411,236.099 283,277.5C 281.089,289.151 282.922,300.151 288.5,310.5C 209.178,282.775 129.845,254.275 50.5,225C 32.3411,216.188 24.5078,201.688 27,181.5C 30.8865,168.503 35.5532,155.837 41,143.5C 66.0734,152.858 91.2401,162.025 116.5,171C 128.394,173.944 139.394,171.944 149.5,165C 172.155,149.154 195.155,133.987 218.5,119.5 Z M 230.5,142.5 C 234.747,142.118 237.414,143.951 238.5,148C 234.798,160.116 230.132,171.782 224.5,183C 218.333,184.167 215.833,181.667 217,175.5C 220.863,165.577 224.53,155.577 228,145.5C 229.045,144.627 229.878,143.627 230.5,142.5 Z M 260.5,153.5 C 264.747,153.118 267.414,154.951 268.5,159C 264.667,169.833 260.833,180.667 257,191.5C 253.667,195.5 250.333,195.5 247,191.5C 246.333,190.167 246.333,188.833 247,187.5C 250.645,175.713 255.145,164.379 260.5,153.5 Z M 291.5,164.5 C 296.757,164.688 298.924,167.355 298,172.5C 294.137,182.423 290.47,192.423 287,202.5C 282.251,207.017 278.751,206.183 276.5,200C 280,190.167 283.5,180.333 287,170.5C 287.804,167.854 289.304,165.854 291.5,164.5 Z"/></g>
<g><path style="opacity:0.938" fill="#000000" d="M 424.5,122.5 C 430.577,122.196 436.577,122.696 442.5,124C 463.909,131.47 485.243,139.136 506.5,147C 509.349,149.559 510.183,152.726 509,156.5C 492.911,166.797 476.411,176.464 459.5,185.5C 460.263,165.198 452.596,149.031 436.5,137C 429.081,133.083 421.414,129.75 413.5,127C 416.979,124.791 420.646,123.291 424.5,122.5 Z"/></g>
<g><path style="opacity:0.964" fill="#000000" d="M 397.5,134.5 C 410.214,137.02 422.214,141.52 433.5,148C 444.928,157.948 449.428,170.448 447,185.5C 431.654,230.539 415.321,275.206 398,319.5C 387.725,333.714 373.892,339.214 356.5,336C 342.435,331.2 328.435,326.2 314.5,321C 297.618,311.397 290.785,296.897 294,277.5C 308.055,237.725 322.388,198.059 337,158.5C 343.775,158.923 350.608,158.423 357.5,157C 371.349,150.246 384.683,142.746 397.5,134.5 Z M 370.5,180.5 C 396.491,179.986 410.158,192.819 411.5,219C 410.714,242.766 399.381,259.1 377.5,268C 355.781,271.715 341.948,262.882 336,241.5C 332.019,219.77 338.519,201.937 355.5,188C 360.313,184.927 365.313,182.427 370.5,180.5 Z M 370.5,217.5 C 379.026,217.565 381.859,221.565 379,229.5C 372.351,233.932 367.851,232.266 365.5,224.5C 366.06,221.288 367.727,218.955 370.5,217.5 Z M 330.5,279.5 C 338.201,279.362 341.367,283.029 340,290.5C 333.603,296.36 328.77,295.193 325.5,287C 326.574,284.095 328.241,281.595 330.5,279.5 Z M 360.5,290.5 C 368.147,290.313 371.314,293.98 370,301.5C 365.667,306.833 361.333,306.833 357,301.5C 355.662,296.96 356.829,293.293 360.5,290.5 Z"/></g>
<g><path style="opacity:0.947" fill="#000000" d="M 371.5,191.5 C 390.638,190.468 400.305,199.635 400.5,219C 400.213,234.243 393.88,246.243 381.5,255C 359.24,262.27 347.24,254.104 345.5,230.5C 346.007,211.762 354.673,198.762 371.5,191.5 Z M 370.5,217.5 C 367.727,218.955 366.06,221.288 365.5,224.5C 367.851,232.266 372.351,233.932 379,229.5C 381.859,221.565 379.026,217.565 370.5,217.5 Z"/></g>
<g><path style="opacity:0.935" fill="#000000" d="M 144.5,271.5 C 180.398,283.633 216.065,296.466 251.5,310C 248.283,321.228 240.95,325.894 229.5,324C 202.269,314.59 175.269,304.59 148.5,294C 142.195,287.462 140.862,279.962 144.5,271.5 Z"/></g>
<g><path style="opacity:0.993" fill="#000000" d="M 4.5,299.5 C 11.5888,299.116 18.5888,299.616 25.5,301C 29.0388,302.907 31.5388,305.74 33,309.5C 33.6667,370.833 33.6667,432.167 33,493.5C 28.8558,501.575 22.1891,505.242 13,504.5C 8.84103,504.993 5.17436,503.993 2,501.5C 1.33333,434.833 1.33333,368.167 2,301.5C 2.9947,300.934 3.82803,300.267 4.5,299.5 Z"/></g>
<g><path style="opacity:0.93" fill="#000000" d="M 171.5,314.5 C 182.182,318 192.515,322.167 202.5,327C 198.262,338.548 193.929,350.048 189.5,361.5C 180.338,354.611 170.005,350.778 158.5,350C 162.976,338.215 167.31,326.381 171.5,314.5 Z"/></g>
<g><path style="opacity:0.975" fill="#000000" d="M 45.5,354.5 C 68.5665,360.849 91.5665,367.349 114.5,374C 103.854,392.523 103.854,411.023 114.5,429.5C 91.9278,436.143 69.2611,442.477 46.5,448.5C 45.5002,417.174 45.1668,385.84 45.5,354.5 Z"/></g>
<g><path style="opacity:0.937" fill="#000000" d="M 149.5,361.5 C 178.451,359.466 194.785,372.799 198.5,401.5C 195.302,428.201 180.302,441.701 153.5,442C 126.61,436.41 114.777,419.91 118,392.5C 122.457,375.875 132.957,365.541 149.5,361.5 Z M 152.5,380.5 C 167.65,379.654 176.65,386.654 179.5,401.5C 177.907,414.259 170.741,421.593 158,423.5C 138.305,419.444 132.305,408.111 140,389.5C 143.299,385.118 147.466,382.118 152.5,380.5 Z"/></g>
<g><path style="opacity:0.897" fill="#000000" d="M 153.5,391.5 C 161.742,390.113 166.742,393.447 168.5,401.5C 165.941,411.523 159.941,414.356 150.5,410C 145.795,402.814 146.795,396.647 153.5,391.5 Z"/></g>
</svg>
