<?xml version="1.0" encoding="UTF-8"?>
<!DOCTYPE svg PUBLIC "-//W3C//DTD SVG 1.1//EN" "http://www.w3.org/Graphics/SVG/1.1/DTD/svg11.dtd">
<svg xmlns="http://www.w3.org/2000/svg" version="1.1" width="512px" height="512px" style="shape-rendering:geometricPrecision; text-rendering:geometricPrecision; image-rendering:optimizeQuality; fill-rule:evenodd; clip-rule:evenodd" xmlns:xlink="http://www.w3.org/1999/xlink">
<g><path style="opacity:0.989" fill="#d19c15" d="M 5.5,-0.5 C 172.167,-0.5 338.833,-0.5 505.5,-0.5C 507.833,1.16667 509.833,3.16667 511.5,5.5C 511.5,172.167 511.5,338.833 511.5,505.5C 509.833,507.833 507.833,509.833 505.5,511.5C 477.5,511.5 449.5,511.5 421.5,511.5C 421.667,380.166 421.5,248.833 421,117.5C 419.337,115.083 417.171,113.25 414.5,112C 308.5,111.333 202.5,111.333 96.5,112C 93.8293,113.25 91.6626,115.083 90,117.5C 89.5,248.833 89.3333,380.166 89.5,511.5C 61.5,511.5 33.5,511.5 5.5,511.5C 3.16667,509.833 1.16667,507.833 -0.5,505.5C -0.5,338.833 -0.5,172.167 -0.5,5.5C 1.16667,3.16667 3.16667,1.16667 5.5,-0.5 Z M 186.5,44.5 C 189.688,44.6178 192.688,45.4511 195.5,47C 204.735,55.5652 213.235,64.7319 221,74.5C 221.458,84.7045 216.625,88.8712 206.5,87C 200.35,81.6843 194.35,76.1843 188.5,70.5C 182.65,76.1843 176.65,81.6843 170.5,87C 162.028,88.8599 157.028,85.5265 155.5,77C 156.329,75.1839 157.163,73.3506 158,71.5C 167.117,61.877 176.617,52.877 186.5,44.5 Z M 297.5,44.5 C 300.794,44.259 303.794,45.0924 306.5,47C 311.667,52.1667 316.833,57.3333 322,62.5C 326.833,57.6667 331.667,52.8333 336.5,48C 345.741,42.4138 352.074,44.7472 355.5,55C 354.745,57.1748 353.912,59.3415 353,61.5C 344.47,70.3641 335.637,78.8641 326.5,87C 323.833,87.6667 321.167,87.6667 318.5,87C 308.333,78.1667 298.833,68.6667 290,58.5C 289.11,51.9429 291.61,47.2762 297.5,44.5 Z M 454.5,222.5 C 464.282,223.733 467.782,229.066 465,238.5C 459.897,244.263 454.23,244.93 448,240.5C 443.177,231.833 445.344,225.833 454.5,222.5 Z M 451.5,267.5 C 459.736,266.111 464.736,269.444 466.5,277.5C 465.896,283.938 462.396,287.604 456,288.5C 447.934,287.114 444.601,282.447 446,274.5C 446.967,271.379 448.8,269.046 451.5,267.5 Z"/></g>
<g><path style="opacity:0.995" fill="#d19c15" d="M 110.5,132.5 C 155.167,132.5 199.833,132.5 244.5,132.5C 244.5,251.5 244.5,370.5 244.5,489.5C 199.833,489.5 155.167,489.5 110.5,489.5C 110.5,370.5 110.5,251.5 110.5,132.5 Z"/></g>
<g><path style="opacity:0.995" fill="#d19c15" d="M 266.5,132.5 C 311.167,132.5 355.833,132.5 400.5,132.5C 400.5,251.5 400.5,370.5 400.5,489.5C 355.833,489.5 311.167,489.5 266.5,489.5C 266.5,370.5 266.5,251.5 266.5,132.5 Z"/></g>
</svg>
