<?xml version="1.0" encoding="UTF-8"?>
<!DOCTYPE svg PUBLIC "-//W3C//DTD SVG 1.1//EN" "http://www.w3.org/Graphics/SVG/1.1/DTD/svg11.dtd">
<svg xmlns="http://www.w3.org/2000/svg" version="1.1" width="512px" height="512px" style="shape-rendering:geometricPrecision; text-rendering:geometricPrecision; image-rendering:optimizeQuality; fill-rule:evenodd; clip-rule:evenodd" xmlns:xlink="http://www.w3.org/1999/xlink">
<g><path style="opacity:0.991" fill="#d19c15" d="M 35.5,75.5 C 182.167,75.3333 328.834,75.5 475.5,76C 479.02,76.6732 482.353,77.8398 485.5,79.5C 412.708,153.792 339.375,227.625 265.5,301C 258.821,304.33 252.155,304.33 245.5,301C 171.625,227.625 98.2918,153.792 25.5,79.5C 28.855,77.9436 32.1883,76.6102 35.5,75.5 Z"/></g>
<g><path style="opacity:0.985" fill="#d19c15" d="M -0.5,399.5 C -0.5,303.5 -0.5,207.5 -0.5,111.5C 0.607612,108.198 1.94095,104.865 3.5,101.5C 4.00161,100.479 4.66828,100.312 5.5,101C 57.0137,152.347 108.347,203.847 159.5,255.5C 108.347,307.153 57.0137,358.653 5.5,410C 4.66828,410.688 4.00161,410.521 3.5,409.5C 1.94095,406.135 0.607612,402.802 -0.5,399.5 Z"/></g>
<g><path style="opacity:0.985" fill="#d19c15" d="M 511.5,111.5 C 511.5,207.5 511.5,303.5 511.5,399.5C 510.392,402.802 509.059,406.135 507.5,409.5C 506.998,410.521 506.332,410.688 505.5,410C 454.167,358.667 402.833,307.333 351.5,256C 402.472,204.028 453.806,152.361 505.5,101C 506.332,100.312 506.998,100.479 507.5,101.5C 509.059,104.865 510.392,108.198 511.5,111.5 Z"/></g>
<g><path style="opacity:0.99" fill="#d19c15" d="M 178.5,276.5 C 179.239,276.369 179.906,276.536 180.5,277C 196.195,293.029 212.195,308.696 228.5,324C 246.492,335.332 264.492,335.332 282.5,324C 298.805,308.696 314.805,293.029 330.5,277C 331.167,276.333 331.833,276.333 332.5,277C 384.042,328.042 435.042,379.542 485.5,431.5C 482.353,433.16 479.02,434.327 475.5,435C 328.833,435.667 182.167,435.667 35.5,435C 32.6074,434.369 29.7741,433.536 27,432.5C 25.7425,432.15 25.4092,431.483 26,430.5C 76.6738,378.993 127.507,327.66 178.5,276.5 Z"/></g>
</svg>
