<?xml version="1.0" encoding="UTF-8"?>
<!DOCTYPE svg PUBLIC "-//W3C//DTD SVG 1.1//EN" "http://www.w3.org/Graphics/SVG/1.1/DTD/svg11.dtd">
<svg xmlns="http://www.w3.org/2000/svg" version="1.1" width="512px" height="512px" style="shape-rendering:geometricPrecision; text-rendering:geometricPrecision; image-rendering:optimizeQuality; fill-rule:evenodd; clip-rule:evenodd" xmlns:xlink="http://www.w3.org/1999/xlink">
<g><path style="opacity:0.99" fill="#d19c15" d="M 511.5,158.5 C 511.5,271.167 511.5,383.833 511.5,496.5C 509.685,500.479 506.685,503.312 502.5,505C 496.077,506.105 489.577,506.605 483,506.5C 476.423,506.605 469.923,506.105 463.5,505C 459.612,502.778 456.779,499.612 455,495.5C 454.995,400.752 454.329,306.086 453,211.5C 387.237,210.834 321.403,210.501 255.5,210.5C 189.597,210.501 123.763,210.834 58,211.5C 56.6714,306.086 56.0047,400.752 56,495.5C 54.2214,499.612 51.3881,502.778 47.5,505C 41.077,506.105 34.577,506.605 28,506.5C 21.423,506.605 14.923,506.105 8.5,505C 4.31481,503.312 1.31481,500.479 -0.5,496.5C -0.5,383.833 -0.5,271.167 -0.5,158.5C 1.76943,152.715 5.4361,147.881 10.5,144C 87.8333,98.6667 165.167,53.3333 242.5,8C 251.167,3.33333 259.833,3.33333 268.5,8C 345.833,53.3333 423.167,98.6667 500.5,144C 505.564,147.881 509.231,152.715 511.5,158.5 Z M 187.5,254.5 C 232.835,254.333 278.168,254.5 323.5,255C 334.137,257.069 341.97,262.902 347,272.5C 355.063,291.291 362.563,310.291 369.5,329.5C 368.82,335.678 365.487,339.511 359.5,341C 289.109,341.99 218.776,341.657 148.5,340C 142.703,337.24 140.537,332.74 142,326.5C 149.448,306.938 157.448,287.605 166,268.5C 171.795,261.505 178.961,256.838 187.5,254.5 Z M 142.5,378.5 C 158.929,378.03 175.262,378.53 191.5,380C 193.726,381.227 195.226,383.061 196,385.5C 196.667,392.833 196.667,400.167 196,407.5C 195.167,411 193,413.167 189.5,414C 173.833,414.667 158.167,414.667 142.5,414C 139.417,413.214 137.251,411.381 136,408.5C 135.333,400.5 135.333,392.5 136,384.5C 137.494,381.686 139.66,379.686 142.5,378.5 Z M 321.5,378.5 C 337.904,378.045 354.237,378.545 370.5,380C 372.894,381.952 374.394,384.452 375,387.5C 375.848,394.899 375.515,402.233 374,409.5C 372.457,411.378 370.624,412.878 368.5,414C 351.742,414.97 335.075,414.637 318.5,413C 316.19,411.363 314.69,409.196 314,406.5C 313.144,398.768 313.477,391.102 315,383.5C 316.805,381.174 318.972,379.508 321.5,378.5 Z"/></g>
<g><path style="opacity:0.977" fill="#d19c15" d="M 178.5,238.5 C 231.213,238.018 283.88,238.518 336.5,240C 352.573,244.74 364.406,254.574 372,269.5C 376.057,279.948 380.391,290.282 385,300.5C 391.558,297.737 398.392,296.904 405.5,298C 413.53,300.034 418.03,305.2 419,313.5C 419.317,326.846 413.151,335.846 400.5,340.5C 405.241,354.132 408.408,368.132 410,382.5C 410.976,412.228 410.643,441.895 409,471.5C 403.185,483.578 393.519,488.912 380,487.5C 363.307,488.465 353.307,480.799 350,464.5C 349.501,459.511 349.334,454.511 349.5,449.5C 286.5,449.5 223.5,449.5 160.5,449.5C 162.508,481.306 147.841,493.472 116.5,486C 106.189,481.543 100.689,473.71 100,462.5C 99.3333,439.833 99.3333,417.167 100,394.5C 100.683,375.754 104.183,357.588 110.5,340C 92.7079,332.923 87.8746,320.756 96,303.5C 100.417,299.138 105.75,297.138 112,297.5C 116.91,297.473 121.577,298.473 126,300.5C 129.943,291.614 133.61,282.614 137,273.5C 145.237,255.089 159.07,243.422 178.5,238.5 Z M 187.5,254.5 C 178.961,256.838 171.795,261.505 166,268.5C 157.448,287.605 149.448,306.938 142,326.5C 140.537,332.74 142.703,337.24 148.5,340C 218.776,341.657 289.109,341.99 359.5,341C 365.487,339.511 368.82,335.678 369.5,329.5C 362.563,310.291 355.063,291.291 347,272.5C 341.97,262.902 334.137,257.069 323.5,255C 278.168,254.5 232.835,254.333 187.5,254.5 Z M 142.5,378.5 C 139.66,379.686 137.494,381.686 136,384.5C 135.333,392.5 135.333,400.5 136,408.5C 137.251,411.381 139.417,413.214 142.5,414C 158.167,414.667 173.833,414.667 189.5,414C 193,413.167 195.167,411 196,407.5C 196.667,400.167 196.667,392.833 196,385.5C 195.226,383.061 193.726,381.227 191.5,380C 175.262,378.53 158.929,378.03 142.5,378.5 Z M 321.5,378.5 C 318.972,379.508 316.805,381.174 315,383.5C 313.477,391.102 313.144,398.768 314,406.5C 314.69,409.196 316.19,411.363 318.5,413C 335.075,414.637 351.742,414.97 368.5,414C 370.624,412.878 372.457,411.378 374,409.5C 375.515,402.233 375.848,394.899 375,387.5C 374.394,384.452 372.894,381.952 370.5,380C 354.237,378.545 337.904,378.045 321.5,378.5 Z"/></g>
</svg>
