<?xml version="1.0" encoding="UTF-8"?>
<!DOCTYPE svg PUBLIC "-//W3C//DTD SVG 1.1//EN" "http://www.w3.org/Graphics/SVG/1.1/DTD/svg11.dtd">
<svg xmlns="http://www.w3.org/2000/svg" version="1.1" width="512px" height="512px" style="shape-rendering:geometricPrecision; text-rendering:geometricPrecision; image-rendering:optimizeQuality; fill-rule:evenodd; clip-rule:evenodd" xmlns:xlink="http://www.w3.org/1999/xlink">
<g><path style="opacity:0.947" fill="#000000" d="M 254.5,-0.5 C 285.167,-0.5 315.833,-0.5 346.5,-0.5C 349.2,1.04602 351.033,3.37935 352,6.5C 352.667,23.8333 352.667,41.1667 352,58.5C 350.878,60.6238 349.378,62.4571 347.5,64C 319.564,65.4748 291.564,65.9748 263.5,65.5C 263.5,80.5 263.5,95.5 263.5,110.5C 304.501,110.333 345.501,110.5 386.5,111C 391.224,113.435 392.724,117.269 391,122.5C 389.833,123.667 388.667,124.833 387.5,126C 279.165,126.167 170.832,126.667 62.5,127.5C 61.1667,133.5 61.1667,139.5 62.5,145.5C 190.833,146.833 319.167,146.833 447.5,145.5C 448.833,139.5 448.833,133.5 447.5,127.5C 435.848,126.667 424.181,126.167 412.5,126C 405.85,121.044 405.85,116.044 412.5,111C 425.167,110.333 437.833,110.333 450.5,111C 456.501,112.336 460.668,115.836 463,121.5C 465,131.5 465,141.5 463,151.5C 460.505,157.328 456.171,160.995 450,162.5C 449.5,262.833 449.333,363.166 449.5,463.5C 454.511,463.334 459.511,463.501 464.5,464C 468,465.5 470.5,468 472,471.5C 472.667,482.167 472.667,492.833 472,503.5C 470.695,506.961 468.529,509.628 465.5,511.5C 325.5,511.5 185.5,511.5 45.5,511.5C 42.4713,509.628 40.3046,506.961 39,503.5C 38.3333,492.833 38.3333,482.167 39,471.5C 40.5,468 43,465.5 46.5,464C 51.4889,463.501 56.4889,463.334 61.5,463.5C 61.3333,397.166 61.5,330.832 62,264.5C 64.4353,259.776 68.2686,258.276 73.5,260C 75.0488,261.214 76.2155,262.714 77,264.5C 77.5,330.832 77.6667,397.166 77.5,463.5C 96.1667,463.5 114.833,463.5 133.5,463.5C 133.333,452.162 133.5,440.828 134,429.5C 135.482,421.038 139.648,414.204 146.5,409C 164.498,400.538 178.665,404.704 189,421.5C 189.92,424.101 190.587,426.768 191,429.5C 191.5,440.828 191.667,452.162 191.5,463.5C 203.167,463.5 214.833,463.5 226.5,463.5C 226.333,451.162 226.5,438.829 227,426.5C 233.463,408.848 245.963,402.015 264.5,406C 274.191,409.689 280.357,416.522 283,426.5C 283.5,438.829 283.667,451.162 283.5,463.5C 295.167,463.5 306.833,463.5 318.5,463.5C 318.333,452.162 318.5,440.828 319,429.5C 322.388,414.283 331.888,405.95 347.5,404.5C 359.861,404.759 368.694,410.426 374,421.5C 374.92,424.101 375.587,426.768 376,429.5C 376.5,440.828 376.667,452.162 376.5,463.5C 395.5,463.5 414.5,463.5 433.5,463.5C 433.5,363.167 433.5,262.833 433.5,162.5C 314.833,162.5 196.167,162.5 77.5,162.5C 77.6666,187.836 77.5,213.169 77,238.5C 72,245.167 67,245.167 62,238.5C 61.5,213.169 61.3334,187.836 61.5,162.5C 54.5548,161.611 49.7215,157.945 47,151.5C 45,141.5 45,131.5 47,121.5C 49.3324,115.836 53.4991,112.336 59.5,111C 122.166,110.5 184.832,110.333 247.5,110.5C 247.333,76.165 247.5,41.8317 248,7.5C 249.277,4.06178 251.443,1.39512 254.5,-0.5 Z M 263.5,14.5 C 287.833,14.5 312.167,14.5 336.5,14.5C 336.5,26.1667 336.5,37.8333 336.5,49.5C 312.167,49.5 287.833,49.5 263.5,49.5C 263.5,37.8333 263.5,26.1667 263.5,14.5 Z M 159.5,420.5 C 166.005,420.168 170.838,422.835 174,428.5C 175.436,440.09 175.936,451.757 175.5,463.5C 166.833,463.5 158.167,463.5 149.5,463.5C 149.333,452.828 149.5,442.161 150,431.5C 151.599,426.406 154.766,422.739 159.5,420.5 Z M 252.5,420.5 C 259.511,420.085 264.345,423.085 267,429.5C 267.5,440.828 267.667,452.162 267.5,463.5C 259.167,463.5 250.833,463.5 242.5,463.5C 242.333,452.162 242.5,440.828 243,429.5C 244.775,424.888 247.942,421.888 252.5,420.5 Z M 344.5,420.5 C 351.005,420.168 355.838,422.835 359,428.5C 360.436,440.09 360.936,451.757 360.5,463.5C 351.833,463.5 343.167,463.5 334.5,463.5C 334.333,452.828 334.5,442.161 335,431.5C 336.599,426.406 339.766,422.739 344.5,420.5 Z M 54.5,479.5 C 188.5,479.5 322.5,479.5 456.5,479.5C 456.5,485.167 456.5,490.833 456.5,496.5C 322.5,496.5 188.5,496.5 54.5,496.5C 54.5,490.833 54.5,485.167 54.5,479.5 Z"/></g>
<g><path style="opacity:0.936" fill="#000000" d="M 103.5,192.5 C 114.555,192.121 125.555,192.621 136.5,194C 139.333,195.5 141.5,197.667 143,200.5C 144.634,236.128 144.967,271.794 144,307.5C 143.014,313.151 139.847,316.985 134.5,319C 123.167,319.667 111.833,319.667 100.5,319C 96.3333,317.5 93.5,314.667 92,310.5C 91.3333,274.5 91.3333,238.5 92,202.5C 94.1583,197.171 97.9916,193.838 103.5,192.5 Z M 107.5,208.5 C 114.5,208.5 121.5,208.5 128.5,208.5C 128.5,240.167 128.5,271.833 128.5,303.5C 121.5,303.5 114.5,303.5 107.5,303.5C 107.5,271.833 107.5,240.167 107.5,208.5 Z"/></g>
<g><path style="opacity:0.936" fill="#000000" d="M 172.5,192.5 C 181.839,192.334 191.173,192.5 200.5,193C 206.1,193.541 209.934,196.374 212,201.5C 212.667,237.833 212.667,274.167 212,310.5C 210.5,314.667 207.667,317.5 203.5,319C 192.167,319.667 180.833,319.667 169.5,319C 165.749,317.585 162.916,315.085 161,311.5C 159.367,276.206 159.033,240.872 160,205.5C 161.012,197.99 165.179,193.656 172.5,192.5 Z M 175.5,208.5 C 182.5,208.5 189.5,208.5 196.5,208.5C 196.5,240.167 196.5,271.833 196.5,303.5C 189.5,303.5 182.5,303.5 175.5,303.5C 175.5,271.833 175.5,240.167 175.5,208.5 Z"/></g>
<g><path style="opacity:0.935" fill="#000000" d="M 240.5,192.5 C 250.172,192.334 259.839,192.5 269.5,193C 275.127,193.957 278.96,197.124 281,202.5C 281.667,238.167 281.667,273.833 281,309.5C 279.833,314.667 276.667,317.833 271.5,319C 260.5,319.667 249.5,319.667 238.5,319C 233.333,317.833 230.167,314.667 229,309.5C 228.333,273.833 228.333,238.167 229,202.5C 231.21,197.112 235.043,193.779 240.5,192.5 Z M 244.5,208.5 C 251.5,208.5 258.5,208.5 265.5,208.5C 265.5,240.167 265.5,271.833 265.5,303.5C 258.5,303.5 251.5,303.5 244.5,303.5C 244.5,271.833 244.5,240.167 244.5,208.5 Z"/></g>
<g><path style="opacity:0.936" fill="#000000" d="M 309.5,192.5 C 320.555,192.121 331.555,192.621 342.5,194C 345.333,195.5 347.5,197.667 349,200.5C 350.633,235.794 350.967,271.128 350,306.5C 349.474,312.691 346.307,316.857 340.5,319C 329.167,319.667 317.833,319.667 306.5,319C 302.333,317.5 299.5,314.667 298,310.5C 297.333,274.167 297.333,237.833 298,201.5C 300.291,196.448 304.124,193.448 309.5,192.5 Z M 313.5,208.5 C 320.5,208.5 327.5,208.5 334.5,208.5C 334.5,240.167 334.5,271.833 334.5,303.5C 327.5,303.5 320.5,303.5 313.5,303.5C 313.5,271.833 313.5,240.167 313.5,208.5 Z"/></g>
<g><path style="opacity:0.936" fill="#000000" d="M 378.5,192.5 C 387.839,192.334 397.173,192.5 406.5,193C 411.763,193.933 415.596,196.766 418,201.5C 418.667,237.833 418.667,274.167 418,310.5C 416.5,314.667 413.667,317.5 409.5,319C 398.167,319.667 386.833,319.667 375.5,319C 370.153,316.985 366.986,313.151 366,307.5C 365.333,273.5 365.333,239.5 366,205.5C 367.012,197.99 371.179,193.656 378.5,192.5 Z M 381.5,208.5 C 388.5,208.5 395.5,208.5 402.5,208.5C 402.5,240.167 402.5,271.833 402.5,303.5C 395.5,303.5 388.5,303.5 381.5,303.5C 381.5,271.833 381.5,240.167 381.5,208.5 Z"/></g>
<g><path style="opacity:0.935" fill="#000000" d="M 109.5,344.5 C 186.167,344.333 262.834,344.5 339.5,345C 344.752,348.086 345.752,352.253 342.5,357.5C 341.335,358.584 340.002,359.417 338.5,360C 264.501,360.5 190.501,360.667 116.5,360.5C 116.5,364.5 116.5,368.5 116.5,372.5C 209.167,372.5 301.833,372.5 394.5,372.5C 394.5,368.5 394.5,364.5 394.5,360.5C 384.828,360.666 375.161,360.5 365.5,360C 360.931,357.459 359.431,353.625 361,348.5C 362.167,347.333 363.333,346.167 364.5,345C 376.833,344.333 389.167,344.333 401.5,345C 406.062,346.627 408.895,349.794 410,354.5C 410.667,362.167 410.667,369.833 410,377.5C 409.228,383.235 406.062,386.735 400.5,388C 303.833,388.667 207.167,388.667 110.5,388C 106.32,386.998 103.486,384.498 102,380.5C 100,370.833 100,361.167 102,351.5C 103.742,348.254 106.242,345.921 109.5,344.5 Z"/></g>
</svg>
