<?xml version="1.0" encoding="UTF-8"?>
<!DOCTYPE svg PUBLIC "-//W3C//DTD SVG 1.1//EN" "http://www.w3.org/Graphics/SVG/1.1/DTD/svg11.dtd">
<svg xmlns="http://www.w3.org/2000/svg" version="1.1" width="512px" height="512px" style="shape-rendering:geometricPrecision; text-rendering:geometricPrecision; image-rendering:optimizeQuality; fill-rule:evenodd; clip-rule:evenodd" xmlns:xlink="http://www.w3.org/1999/xlink">
<g><path style="opacity:0.946" fill="#d19c15" d="M 339.5,14.5 C 356.837,14.3334 374.17,14.5001 391.5,15C 399.9,17.398 404.733,22.898 406,31.5C 406.333,55.1667 406.667,78.8333 407,102.5C 427.299,113.066 447.799,123.233 468.5,133C 476.902,141.237 476.235,148.57 466.5,155C 464.167,155.667 461.833,155.667 459.5,155C 435.5,143.333 411.5,131.667 387.5,120C 385.383,118.269 383.883,116.102 383,113.5C 382.5,88.5022 382.333,63.5022 382.5,38.5C 371.167,38.5 359.833,38.5 348.5,38.5C 348.667,54.1702 348.5,69.8369 348,85.5C 344.275,93.1054 338.442,95.2721 330.5,92C 304.728,79.3638 278.894,66.8638 253,54.5C 185.772,87.1973 118.605,120.031 51.5,153C 39.3333,154.833 34.1667,149.667 36,137.5C 37.1217,135.376 38.6217,133.543 40.5,132C 109.589,97.7888 178.922,64.1221 248.5,31C 254.811,30.0769 260.811,31.0769 266.5,34C 285.62,43.6437 304.787,53.1437 324,62.5C 324.112,50.7854 324.779,39.1187 326,27.5C 328.417,20.9149 332.917,16.5815 339.5,14.5 Z"/></g>
<g><path style="opacity:0.947" fill="#d19c15" d="M 161.5,119.5 C 189.945,117.799 210.112,129.799 222,155.5C 229.547,179.815 224.047,200.649 205.5,218C 184.39,233.052 162.39,234.385 139.5,222C 118.478,206.608 110.645,186.108 116,160.5C 123.455,138.208 138.622,124.542 161.5,119.5 Z M 166.5,141.5 C 188.375,142.212 200.375,153.379 202.5,175C 200.865,194.969 190.032,206.136 170,208.5C 143.355,204.185 133.022,188.851 139,162.5C 144.598,150.725 153.765,143.725 166.5,141.5 Z"/></g>
<g><path style="opacity:0.947" fill="#d19c15" d="M 348.5,191.5 C 379.014,189.211 398.847,202.544 408,231.5C 411.531,264.28 397.365,284.78 365.5,293C 333.407,294.705 313.907,279.872 307,248.5C 306.073,218.613 319.906,199.613 348.5,191.5 Z M 352.5,213.5 C 369.833,212.351 381,220.018 386,236.5C 387.471,256.704 378.138,268.371 358,271.5C 334.109,267.067 325.442,253.067 332,229.5C 336.963,221.696 343.796,216.363 352.5,213.5 Z"/></g>
<g><path style="opacity:0.952" fill="#d19c15" d="M 120.5,241.5 C 152.835,241.333 185.168,241.5 217.5,242C 228.292,244.041 238.292,248.041 247.5,254C 253.103,260.323 252.769,266.323 246.5,272C 242.961,273.504 239.295,273.837 235.5,273C 228.855,268.345 221.522,265.345 213.5,264C 183.833,263.333 154.167,263.333 124.5,264C 101,268.833 86.8333,283 82,306.5C 81.5,330.831 81.3334,355.164 81.5,379.5C 88.1667,379.5 94.8333,379.5 101.5,379.5C 101.333,356.831 101.5,334.164 102,311.5C 105.04,305.632 109.54,304.132 115.5,307C 117.049,308.214 118.215,309.714 119,311.5C 119.5,334.164 119.667,356.831 119.5,379.5C 136.237,379.044 152.903,379.544 169.5,381C 175.109,384.277 176.942,389.11 175,395.5C 173.833,398 172,399.833 169.5,401C 138.167,401.667 106.833,401.667 75.5,401C 67.6667,398.5 62.5,393.333 60,385.5C 58.0501,357.846 58.0501,330.179 60,302.5C 66.9865,269.014 87.1532,248.68 120.5,241.5 Z"/></g>
<g><path style="opacity:0.948" fill="#d19c15" d="M 255.5,279.5 C 282.303,281.803 296.97,296.303 299.5,323C 297.093,349.24 282.76,363.74 256.5,366.5C 230.453,363.786 216.12,349.453 213.5,323.5C 215.625,297.377 229.625,282.71 255.5,279.5 Z M 251.5,302.5 C 266.526,301.367 275.193,308.2 277.5,323C 275.037,338.461 266.037,345.127 250.5,343C 237.377,336.966 233.211,327.133 238,313.5C 241.213,308.107 245.713,304.441 251.5,302.5 Z"/></g>
<g><path style="opacity:0.957" fill="#d19c15" d="M 314.5,303.5 C 345.542,303.038 376.542,303.538 407.5,305C 434.516,313.015 450.683,330.849 456,358.5C 456.667,383.833 456.667,409.167 456,434.5C 453.105,443.536 446.939,448.702 437.5,450C 410.167,450.667 382.833,450.667 355.5,450C 347.626,447.76 344.792,442.593 347,434.5C 348.167,432 350,430.167 352.5,429C 369.83,428.5 387.163,428.333 404.5,428.5C 404.333,408.164 404.5,387.831 405,367.5C 407.402,361.908 411.569,360.075 417.5,362C 419.333,363.167 420.833,364.667 422,366.5C 422.5,387.164 422.667,407.831 422.5,428.5C 426.5,428.5 430.5,428.5 434.5,428.5C 434.667,406.831 434.5,385.164 434,363.5C 430.247,342.747 418.08,330.247 397.5,326C 370.167,325.667 342.833,325.333 315.5,325C 307.122,320.952 305.289,314.786 310,306.5C 311.652,305.601 313.152,304.601 314.5,303.5 Z"/></g>
<g><path style="opacity:0.955" fill="#d19c15" d="M 220.5,373.5 C 244.169,373.333 267.836,373.5 291.5,374C 317.116,379.283 332.283,394.783 337,420.5C 337.667,440.5 337.667,460.5 337,480.5C 334.833,488 330,492.833 322.5,495C 277.833,495.667 233.167,495.667 188.5,495C 181,492.833 176.167,488 174,480.5C 173.333,460.833 173.333,441.167 174,421.5C 179.242,395.426 194.742,379.426 220.5,373.5 Z M 225.5,395.5 C 246.169,395.333 266.836,395.5 287.5,396C 302.667,399.167 311.833,408.333 315,423.5C 315.5,440.163 315.667,456.83 315.5,473.5C 313.833,473.5 312.167,473.5 310.5,473.5C 310.667,458.496 310.5,443.496 310,428.5C 307.73,420.783 302.897,418.617 295.5,422C 293.683,423.8 292.516,425.966 292,428.5C 291.5,443.496 291.333,458.496 291.5,473.5C 268.5,473.5 245.5,473.5 222.5,473.5C 222.667,457.497 222.5,441.497 222,425.5C 218.589,420.388 214.089,419.222 208.5,422C 206.951,423.214 205.785,424.714 205,426.5C 204.5,442.163 204.333,457.83 204.5,473.5C 201.5,473.5 198.5,473.5 195.5,473.5C 195.333,458.163 195.5,442.83 196,427.5C 198.431,409.906 208.264,399.239 225.5,395.5 Z"/></g>
</svg>
