<?xml version="1.0" encoding="UTF-8"?>
<!DOCTYPE svg PUBLIC "-//W3C//DTD SVG 1.1//EN" "http://www.w3.org/Graphics/SVG/1.1/DTD/svg11.dtd">
<svg xmlns="http://www.w3.org/2000/svg" version="1.1" width="512px" height="512px" style="shape-rendering:geometricPrecision; text-rendering:geometricPrecision; image-rendering:optimizeQuality; fill-rule:evenodd; clip-rule:evenodd" xmlns:xlink="http://www.w3.org/1999/xlink">
<g><path style="opacity:0.972" fill="#000000" d="M 232.5,-0.5 C 247.833,-0.5 263.167,-0.5 278.5,-0.5C 373.455,10.3237 442.955,57.9903 487,142.5C 500.186,171.252 508.352,201.252 511.5,232.5C 511.5,247.833 511.5,263.167 511.5,278.5C 500.676,373.455 453.01,442.955 368.5,487C 339.75,500.185 309.75,508.352 278.5,511.5C 263.167,511.5 247.833,511.5 232.5,511.5C 137.545,500.676 68.0446,453.01 24,368.5C 10.8145,339.748 2.64783,309.748 -0.5,278.5C -0.5,263.167 -0.5,247.833 -0.5,232.5C 10.3228,137.545 57.9895,68.0452 142.5,24C 171.252,10.8145 201.252,2.64783 232.5,-0.5 Z M 254.5,39.5 C 305.593,40.1404 351.26,55.9738 391.5,87C 392.451,87.7175 392.617,88.5509 392,89.5C 377.319,104.347 362.486,119.014 347.5,133.5C 322.007,87.091 283.007,68.591 230.5,78C 190.832,89.498 166.499,115.331 157.5,155.5C 127.298,155.348 103.798,167.682 87,192.5C 66.3866,232.756 72.5533,268.256 105.5,299C 123.308,312.121 143.308,317.788 165.5,316C 140.167,341.333 114.833,366.667 89.5,392C 88.5509,392.617 87.7175,392.451 87,391.5C 42.1655,331.52 29.4989,265.187 49,192.5C 68.2437,130.922 107.077,86.4218 165.5,59C 194.025,46.6641 223.691,40.1641 254.5,39.5 Z M 254.5,115.5 C 287.326,118.169 307.16,135.503 314,167.5C 278.167,203.333 242.333,239.167 206.5,275C 189.5,275.667 172.5,275.667 155.5,275C 127.607,271.382 114.773,255.549 117,227.5C 122.353,207.901 135.187,197.401 155.5,196C 168.829,195.5 182.163,195.333 195.5,195.5C 194.609,180.455 196.442,165.788 201,151.5C 212.124,129.366 229.957,117.366 254.5,115.5 Z M 421.5,118.5 C 437.786,136.391 449.953,157.057 458,180.5C 479.989,245.905 473.989,308.572 440,368.5C 391.235,441.631 322.735,475.465 234.5,470C 191.381,465.915 153.048,450.415 119.5,423.5C 118.479,422.998 118.312,422.332 119,421.5C 152.347,387.986 185.847,354.653 219.5,321.5C 251.301,354.366 288.967,363.533 332.5,349C 351.089,341.532 366.089,329.532 377.5,313C 419.513,297.496 438.68,267.329 435,222.5C 428.762,191.593 410.929,170.426 381.5,159C 395.035,145.632 408.369,132.132 421.5,118.5 Z M 344.5,195.5 C 363.1,193.41 377.933,199.744 389,214.5C 400.168,238.344 394.668,257.178 372.5,271C 365.612,273.277 358.612,275.111 351.5,276.5C 333.407,311.057 306.074,321.89 269.5,309C 261.998,305.157 255.498,299.99 250,293.5C 249.333,292.5 249.333,291.5 250,290.5C 281.701,258.965 313.201,227.299 344.5,195.5 Z"/></g>
<g><path style="opacity:0.948" fill="#000000" d="M 248.5,395.5 C 268.65,393.483 277.483,402.483 275,422.5C 269.657,433.752 260.824,437.919 248.5,435C 237.248,429.657 233.081,420.824 236,408.5C 238.353,402.315 242.52,397.982 248.5,395.5 Z"/></g>
</svg>
