<?xml version="1.0" encoding="UTF-8"?>
<!DOCTYPE svg PUBLIC "-//W3C//DTD SVG 1.1//EN" "http://www.w3.org/Graphics/SVG/1.1/DTD/svg11.dtd">
<svg xmlns="http://www.w3.org/2000/svg" version="1.1" width="512px" height="512px" style="shape-rendering:geometricPrecision; text-rendering:geometricPrecision; image-rendering:optimizeQuality; fill-rule:evenodd; clip-rule:evenodd" xmlns:xlink="http://www.w3.org/1999/xlink">
<g><path style="opacity:0.944" fill="#d19c15" d="M 5.5,-0.5 C 30.8333,-0.5 56.1667,-0.5 81.5,-0.5C 83.5958,1.43331 85.0958,3.76664 86,6.5C 86.4995,12.4908 86.6662,18.4908 86.5,24.5C 89.6074,24.6488 92.6074,24.1488 95.5,23C 113.393,15.4345 131.06,7.60112 148.5,-0.5C 183.5,-0.5 218.5,-0.5 253.5,-0.5C 265.178,2.34091 275.512,7.84091 284.5,16C 307.667,39.1667 330.833,62.3333 354,85.5C 367.794,104.051 366.294,121.218 349.5,137C 342.65,141.195 335.317,142.695 327.5,141.5C 324.588,148.998 320.422,155.665 315,161.5C 314.95,180.885 314.283,200.218 313,219.5C 308.65,230.021 300.816,235.688 289.5,236.5C 289.968,266.217 289.468,295.883 288,325.5C 280.356,330.739 272.19,335.073 263.5,338.5C 255.605,335.553 247.938,332.053 240.5,328C 239.299,327.097 238.465,325.931 238,324.5C 237.5,295.169 237.333,265.835 237.5,236.5C 222.242,235.076 213.742,226.742 212,211.5C 211.182,195.456 211.349,179.456 212.5,163.5C 205.967,155.773 200.967,147.106 197.5,137.5C 177.584,157.984 153.584,164.818 125.5,158C 108.083,154.053 95.2498,144.219 87,128.5C 86.871,134.914 86.2043,141.247 85,147.5C 83.661,150.094 81.4944,151.594 78.5,152C 55.1667,152.667 31.8333,152.667 8.5,152C 4.47287,151.573 1.97287,149.406 1,145.5C 0.333333,98.8333 0.333333,52.1667 1,5.5C 1.80409,2.85408 3.30409,0.854084 5.5,-0.5 Z M 18.5,16.5 C 35.1667,16.5 51.8333,16.5 68.5,16.5C 68.5,55.8333 68.5,95.1667 68.5,134.5C 51.8333,134.5 35.1667,134.5 18.5,134.5C 18.5,95.1667 18.5,55.8333 18.5,16.5 Z M 306.5,64.5 C 282.493,47.501 257.159,45.3343 230.5,58C 207.502,58.5 184.502,58.6666 161.5,58.5C 161.5,64.5 161.5,70.5 161.5,76.5C 194.168,76.3334 226.835,76.5 259.5,77C 266.481,79.7703 270.481,84.9369 271.5,92.5C 270.493,100.026 266.493,105.192 259.5,108C 237.833,108.333 216.167,108.667 194.5,109C 192.481,109.45 190.648,110.283 189,111.5C 185.651,126.517 176.485,136.017 161.5,140C 140.986,145.765 122.819,141.599 107,127.5C 104.216,123.279 102.549,118.612 102,113.5C 97.7546,109.307 92.5879,107.641 86.5,108.5C 86.5,86.5 86.5,64.5 86.5,42.5C 90.9152,42.6946 95.2486,42.1946 99.5,41C 118.167,33 136.833,25 155.5,17C 187.525,16.0693 219.525,16.4026 251.5,18C 256.399,19.4491 261.065,21.4491 265.5,24C 279.673,37.006 293.339,50.506 306.5,64.5 Z M 282.5,73.5 C 283.251,72.4265 284.251,72.2599 285.5,73C 300.934,81.3907 309.767,94.224 312,111.5C 304.333,103.833 296.667,96.1667 289,88.5C 288.068,82.8384 285.901,77.8384 282.5,73.5 Z M 317.5,75.5 C 327.198,84.0308 336.031,93.3642 344,103.5C 347.014,115.46 342.514,122.293 330.5,124C 331.751,114.726 330.917,105.559 328,96.5C 325.001,89.168 321.501,82.168 317.5,75.5 Z M 283.5,110.5 C 292.609,118.438 301.609,126.604 310.5,135C 308.56,139.828 306.06,144.328 303,148.5C 284.112,134.769 263.612,131.602 241.5,139C 235.452,141.441 229.619,144.274 224,147.5C 222.233,146.66 220.899,145.327 220,143.5C 217.238,138.209 215.071,132.709 213.5,127C 229.833,126.667 246.167,126.333 262.5,126C 271.712,123.737 278.712,118.57 283.5,110.5 Z M 258.5,152.5 C 272,152.889 284.333,156.889 295.5,164.5C 296.666,180.823 296.833,197.156 296,213.5C 295.044,214.579 294.211,215.745 293.5,217C 273.923,218.642 254.256,218.975 234.5,218C 233.333,216.833 232.167,215.667 231,214.5C 229.893,207.91 229.393,201.243 229.5,194.5C 229.833,188.833 230.167,183.167 230.5,177.5C 235.553,180.351 240.886,182.518 246.5,184C 254.17,195.484 263.837,197.484 275.5,190C 282.877,179.773 281.877,170.44 272.5,162C 263.954,158.26 256.121,159.427 249,165.5C 245.219,164.576 241.719,163.076 238.5,161C 244.725,156.877 251.392,154.044 258.5,152.5 Z M 255.5,236.5 C 260.833,236.5 266.167,236.5 271.5,236.5C 271.833,262.842 271.5,289.175 270.5,315.5C 268.278,316.778 265.944,317.778 263.5,318.5C 261.056,317.778 258.722,316.778 256.5,315.5C 255.5,289.175 255.167,262.842 255.5,236.5 Z"/></g>
<g><path style="opacity:0.937" fill="#d19c15" d="M 511.5,371.5 C 511.5,374.5 511.5,377.5 511.5,380.5C 495.871,421.543 480.704,462.876 466,504.5C 465.033,507.621 463.2,509.954 460.5,511.5C 457.833,511.5 455.167,511.5 452.5,511.5C 436.304,505.264 419.971,499.097 403.5,493C 399.644,487.431 399.644,481.764 403.5,476C 402,474.885 400.333,474.052 398.5,473.5C 381.705,479.765 364.705,485.432 347.5,490.5C 288.064,469.282 228.73,447.782 169.5,426C 150.542,416.244 144.042,401.077 150,380.5C 158.735,363.464 172.569,356.964 191.5,361C 209.41,367.303 227.243,373.803 245,380.5C 248.108,376.388 251.608,372.555 255.5,369C 259.804,366.229 264.471,364.229 269.5,363C 308.5,356.167 347.5,349.333 386.5,342.5C 405.474,348.735 424.307,355.402 443,362.5C 445.03,359.787 446.696,356.787 448,353.5C 449.921,351.133 452.421,349.8 455.5,349.5C 472.866,355.566 490.199,361.733 507.5,368C 508.705,369.376 510.038,370.542 511.5,371.5 Z M 384.5,360.5 C 402.51,366.666 420.177,373.499 437.5,381C 428.393,406.987 418.893,432.82 409,458.5C 404.52,455.778 399.687,454.945 394.5,456C 378.987,461.171 363.487,466.338 348,471.5C 290.437,450.868 232.937,430.034 175.5,409C 163.925,401.06 162.592,391.726 171.5,381C 174.592,379.136 177.926,377.969 181.5,377.5C 201.656,383.608 221.49,390.608 241,398.5C 244.215,418.216 255.715,429.216 275.5,431.5C 309.18,425.865 342.846,420.031 376.5,414C 377.022,413.439 377.355,412.772 377.5,412C 376.434,406.837 375.434,401.671 374.5,396.5C 341.61,401.787 308.777,407.454 276,413.5C 259.916,409.232 255.916,399.899 264,385.5C 266.469,383.348 269.302,381.848 272.5,381C 309.986,374.255 347.319,367.421 384.5,360.5 Z M 460.5,370.5 C 471.036,373.845 481.369,377.678 491.5,382C 478.123,418.633 464.457,455.133 450.5,491.5C 440.539,487.569 430.539,483.735 420.5,480C 434.131,443.608 447.464,407.108 460.5,370.5 Z"/></g>
</svg>
