<?xml version="1.0" encoding="UTF-8"?>
<!DOCTYPE svg PUBLIC "-//W3C//DTD SVG 1.1//EN" "http://www.w3.org/Graphics/SVG/1.1/DTD/svg11.dtd">
<svg xmlns="http://www.w3.org/2000/svg" version="1.1" width="512px" height="512px" style="shape-rendering:geometricPrecision; text-rendering:geometricPrecision; image-rendering:optimizeQuality; fill-rule:evenodd; clip-rule:evenodd" xmlns:xlink="http://www.w3.org/1999/xlink">
<g><path style="opacity:0.949" fill="#d19c15" d="M 154.5,-0.5 C 221.833,-0.5 289.167,-0.5 356.5,-0.5C 366.247,2.75018 372.413,9.41684 375,19.5C 375.5,35.4965 375.667,51.4965 375.5,67.5C 414.501,67.3333 453.501,67.5 492.5,68C 501.617,70.9552 507.95,76.7885 511.5,85.5C 511.5,113.5 511.5,141.5 511.5,169.5C 507.119,180.867 498.786,186.867 486.5,187.5C 486.5,278.167 486.5,368.833 486.5,459.5C 498.824,460.805 507.157,467.138 511.5,478.5C 511.5,483.5 511.5,488.5 511.5,493.5C 507.833,501.833 501.833,507.833 493.5,511.5C 334.833,511.5 176.167,511.5 17.5,511.5C 9.16667,507.833 3.16667,501.833 -0.5,493.5C -0.5,488.5 -0.5,483.5 -0.5,478.5C 3.8426,467.138 12.1759,460.805 24.5,459.5C 24.5,368.833 24.5,278.167 24.5,187.5C 12.2141,186.867 3.8808,180.867 -0.5,169.5C -0.5,141.5 -0.5,113.5 -0.5,85.5C 3.04976,76.7885 9.38309,70.9552 18.5,68C 57.4986,67.5 96.4986,67.3333 135.5,67.5C 135.333,51.4965 135.5,35.4965 136,19.5C 138.587,9.41684 144.753,2.75018 154.5,-0.5 Z M 158.5,17.5 C 223.916,17.0071 289.25,17.5071 354.5,19C 355.893,20.1711 356.727,21.6711 357,23.5C 357.5,72.1655 357.667,120.832 357.5,169.5C 289.5,169.5 221.5,169.5 153.5,169.5C 153.333,120.832 153.5,72.1655 154,23.5C 154.599,20.7458 156.099,18.7458 158.5,17.5 Z M 247.5,51.5 C 252.833,51.5 258.167,51.5 263.5,51.5C 263.051,61.6051 263.551,71.6051 265,81.5C 266.214,83.0488 267.714,84.2155 269.5,85C 278.827,85.4998 288.161,85.6665 297.5,85.5C 297.5,90.8333 297.5,96.1667 297.5,101.5C 287.395,101.051 277.395,101.551 267.5,103C 265.951,104.214 264.785,105.714 264,107.5C 263.5,116.827 263.334,126.161 263.5,135.5C 258.167,135.5 252.833,135.5 247.5,135.5C 247.949,125.395 247.449,115.395 246,105.5C 244.786,103.951 243.286,102.785 241.5,102C 232.173,101.5 222.839,101.334 213.5,101.5C 213.5,96.1667 213.5,90.8333 213.5,85.5C 223.605,85.9495 233.605,85.4495 243.5,84C 245.049,82.786 246.215,81.286 247,79.5C 247.5,70.1726 247.666,60.8393 247.5,51.5 Z M 22.5,85.5 C 60.1667,85.5 97.8333,85.5 135.5,85.5C 135.5,113.5 135.5,141.5 135.5,169.5C 97.0808,169.988 58.7475,169.488 20.5,168C 19.6667,167.167 18.8333,166.333 18,165.5C 17.3333,140.167 17.3333,114.833 18,89.5C 19.3968,87.9297 20.8968,86.5964 22.5,85.5 Z M 375.5,85.5 C 413.168,85.3333 450.835,85.5 488.5,86C 490.286,86.7845 491.786,87.9512 493,89.5C 493.667,114.833 493.667,140.167 493,165.5C 491.786,167.049 490.286,168.215 488.5,169C 450.835,169.5 413.168,169.667 375.5,169.5C 375.5,141.5 375.5,113.5 375.5,85.5 Z M 42.5,187.5 C 184.5,187.5 326.5,187.5 468.5,187.5C 468.5,278.167 468.5,368.833 468.5,459.5C 463.167,459.5 457.833,459.5 452.5,459.5C 452.667,379.166 452.5,298.833 452,218.5C 451.116,211.951 447.616,207.451 441.5,205C 425.051,203.863 408.551,203.363 392,203.5C 376.833,203.667 361.667,203.833 346.5,204C 338.333,205.5 333.5,210.333 332,218.5C 331.5,298.833 331.333,379.166 331.5,459.5C 235.167,459.5 138.833,459.5 42.5,459.5C 42.5,368.833 42.5,278.167 42.5,187.5 Z M 76.5,221.5 C 107.5,221.5 138.5,221.5 169.5,221.5C 169.5,289.5 169.5,357.5 169.5,425.5C 138.5,425.5 107.5,425.5 76.5,425.5C 76.5,357.5 76.5,289.5 76.5,221.5 Z M 187.5,221.5 C 224.167,221.5 260.833,221.5 297.5,221.5C 297.5,252.5 297.5,283.5 297.5,314.5C 283.5,314.5 269.5,314.5 255.5,314.5C 255.667,295.164 255.5,275.83 255,256.5C 248.132,240.316 236.299,234.816 219.5,240C 212.268,242.899 207.435,248.066 205,255.5C 203.562,275.12 203.062,294.787 203.5,314.5C 198.167,314.5 192.833,314.5 187.5,314.5C 187.5,283.5 187.5,252.5 187.5,221.5 Z M 349.5,221.5 C 377.833,221.5 406.167,221.5 434.5,221.5C 434.5,300.833 434.5,380.167 434.5,459.5C 406.167,459.5 377.833,459.5 349.5,459.5C 349.5,380.167 349.5,300.833 349.5,221.5 Z M 226.5,256.5 C 230.909,255.618 234.409,256.952 237,260.5C 237.5,278.497 237.667,296.497 237.5,314.5C 232.167,314.5 226.833,314.5 221.5,314.5C 221.333,297.163 221.5,279.83 222,262.5C 222.804,259.854 224.304,257.854 226.5,256.5 Z M 187.5,332.5 C 224.167,332.5 260.833,332.5 297.5,332.5C 297.5,363.5 297.5,394.5 297.5,425.5C 292.167,425.5 286.833,425.5 281.5,425.5C 281.667,401.831 281.5,378.164 281,354.5C 277.858,349.008 273.358,347.508 267.5,350C 265.951,351.214 264.785,352.714 264,354.5C 263.5,378.164 263.333,401.831 263.5,425.5C 260.482,425.665 257.482,425.498 254.5,425C 257.864,411.399 253.53,401.065 241.5,394C 221.784,387.937 209.284,394.771 204,414.5C 203.721,418.17 203.888,421.837 204.5,425.5C 198.833,425.5 193.167,425.5 187.5,425.5C 187.5,394.5 187.5,363.5 187.5,332.5 Z M 227.5,409.5 C 235.642,409.481 238.808,413.481 237,421.5C 229.885,427.786 224.718,426.452 221.5,417.5C 222.406,413.938 224.406,411.272 227.5,409.5 Z M 23.5,477.5 C 178.167,477.333 332.834,477.5 487.5,478C 492.924,480.017 494.758,483.85 493,489.5C 491.833,490.667 490.667,491.833 489.5,493C 333.5,493.667 177.5,493.667 21.5,493C 17.2468,489.58 16.4135,485.413 19,480.5C 20.6516,479.601 22.1516,478.601 23.5,477.5 Z"/></g>
<g><path style="opacity:0.943" fill="#d19c15" d="M 241.5,33.5 C 250.839,33.3335 260.173,33.5002 269.5,34C 275.307,35.8072 279.141,39.6405 281,45.5C 281.5,52.8258 281.666,60.1591 281.5,67.5C 288.841,67.3337 296.174,67.5003 303.5,68C 309.333,69.8333 313.167,73.6667 315,79.5C 315.667,88.8333 315.667,98.1667 315,107.5C 313.037,113.731 308.87,117.564 302.5,119C 295.508,119.5 288.508,119.666 281.5,119.5C 281.666,126.508 281.5,133.508 281,140.5C 279.5,147.333 275.333,151.5 268.5,153C 259.833,153.667 251.167,153.667 242.5,153C 235.667,151.5 231.5,147.333 230,140.5C 229.5,133.508 229.334,126.508 229.5,119.5C 222.492,119.666 215.492,119.5 208.5,119C 197.236,114.31 192.903,105.81 195.5,93.5C 195.667,88.8333 195.833,84.1667 196,79.5C 197.833,73.6667 201.667,69.8333 207.5,68C 214.826,67.5003 222.159,67.3337 229.5,67.5C 229.334,60.1591 229.5,52.8258 230,45.5C 232.045,39.6244 235.878,35.6244 241.5,33.5 Z M 247.5,51.5 C 247.666,60.8393 247.5,70.1726 247,79.5C 246.215,81.286 245.049,82.786 243.5,84C 233.605,85.4495 223.605,85.9495 213.5,85.5C 213.5,90.8333 213.5,96.1667 213.5,101.5C 222.839,101.334 232.173,101.5 241.5,102C 243.286,102.785 244.786,103.951 246,105.5C 247.449,115.395 247.949,125.395 247.5,135.5C 252.833,135.5 258.167,135.5 263.5,135.5C 263.334,126.161 263.5,116.827 264,107.5C 264.785,105.714 265.951,104.214 267.5,103C 277.395,101.551 287.395,101.051 297.5,101.5C 297.5,96.1667 297.5,90.8333 297.5,85.5C 288.161,85.6665 278.827,85.4998 269.5,85C 267.714,84.2155 266.214,83.0488 265,81.5C 263.551,71.6051 263.051,61.6051 263.5,51.5C 258.167,51.5 252.833,51.5 247.5,51.5 Z"/></g>
<g><path style="opacity:0.95" fill="#d19c15" d="M 73.5,203.5 C 149.167,203.333 224.834,203.5 300.5,204C 307.815,205.316 312.648,209.483 315,216.5C 315.667,288.167 315.667,359.833 315,431.5C 313.167,437.333 309.333,441.167 303.5,443C 226.167,443.667 148.833,443.667 71.5,443C 64.9028,440.737 60.7361,436.237 59,429.5C 58.3333,359.167 58.3333,288.833 59,218.5C 60.681,210.321 65.5143,205.321 73.5,203.5 Z M 76.5,221.5 C 76.5,289.5 76.5,357.5 76.5,425.5C 107.5,425.5 138.5,425.5 169.5,425.5C 169.5,357.5 169.5,289.5 169.5,221.5C 138.5,221.5 107.5,221.5 76.5,221.5 Z M 187.5,221.5 C 187.5,252.5 187.5,283.5 187.5,314.5C 192.833,314.5 198.167,314.5 203.5,314.5C 203.062,294.787 203.562,275.12 205,255.5C 207.435,248.066 212.268,242.899 219.5,240C 236.299,234.816 248.132,240.316 255,256.5C 255.5,275.83 255.667,295.164 255.5,314.5C 269.5,314.5 283.5,314.5 297.5,314.5C 297.5,283.5 297.5,252.5 297.5,221.5C 260.833,221.5 224.167,221.5 187.5,221.5 Z M 226.5,256.5 C 224.304,257.854 222.804,259.854 222,262.5C 221.5,279.83 221.333,297.163 221.5,314.5C 226.833,314.5 232.167,314.5 237.5,314.5C 237.667,296.497 237.5,278.497 237,260.5C 234.409,256.952 230.909,255.618 226.5,256.5 Z M 187.5,332.5 C 187.5,363.5 187.5,394.5 187.5,425.5C 193.167,425.5 198.833,425.5 204.5,425.5C 203.888,421.837 203.721,418.17 204,414.5C 209.284,394.771 221.784,387.937 241.5,394C 253.53,401.065 257.864,411.399 254.5,425C 257.482,425.498 260.482,425.665 263.5,425.5C 263.333,401.831 263.5,378.164 264,354.5C 264.785,352.714 265.951,351.214 267.5,350C 273.358,347.508 277.858,349.008 281,354.5C 281.5,378.164 281.667,401.831 281.5,425.5C 286.833,425.5 292.167,425.5 297.5,425.5C 297.5,394.5 297.5,363.5 297.5,332.5C 260.833,332.5 224.167,332.5 187.5,332.5 Z M 227.5,409.5 C 224.406,411.272 222.406,413.938 221.5,417.5C 224.718,426.452 229.885,427.786 237,421.5C 238.808,413.481 235.642,409.481 227.5,409.5 Z"/></g>
<g><path style="opacity:0.905" fill="#d19c15" d="M 406.5,331.5 C 411.93,331.161 417.264,331.661 422.5,333C 426.671,336.854 427.504,341.354 425,346.5C 424.097,347.701 422.931,348.535 421.5,349C 415.388,349.909 409.388,349.576 403.5,348C 400.572,344.743 399.738,340.909 401,336.5C 402.406,334.256 404.239,332.59 406.5,331.5 Z"/></g>
</svg>
