<?xml version="1.0" encoding="UTF-8"?>
<!DOCTYPE svg PUBLIC "-//W3C//DTD SVG 1.1//EN" "http://www.w3.org/Graphics/SVG/1.1/DTD/svg11.dtd">
<svg xmlns="http://www.w3.org/2000/svg" version="1.1" width="512px" height="512px" style="shape-rendering:geometricPrecision; text-rendering:geometricPrecision; image-rendering:optimizeQuality; fill-rule:evenodd; clip-rule:evenodd" xmlns:xlink="http://www.w3.org/1999/xlink">
<g><path style="opacity:0.986" fill="#000000" d="M 272.5,-0.5 C 276.167,-0.5 279.833,-0.5 283.5,-0.5C 289.29,2.736 292.29,7.736 292.5,14.5C 285.084,79.4128 277.417,144.246 269.5,209C 306.167,209.333 342.833,209.667 379.5,210C 388.157,215.949 389.657,223.449 384,232.5C 337.411,323.344 291.078,414.344 245,505.5C 242.937,507.734 240.771,509.734 238.5,511.5C 234.833,511.5 231.167,511.5 227.5,511.5C 221.516,508.888 218.516,504.222 218.5,497.5C 225.72,435.185 232.72,372.852 239.5,310.5C 204.165,310.667 168.832,310.5 133.5,310C 123.997,304.489 121.497,296.656 126,286.5C 172.938,192.957 219.605,99.2903 266,5.5C 268.063,3.26589 270.229,1.26589 272.5,-0.5 Z"/></g>
<g><path style="opacity:0.976" fill="#000000" d="M 221.5,30.5 C 223.225,30.8425 223.725,31.8425 223,33.5C 212.667,54.1667 202.333,74.8333 192,95.5C 123.805,126.831 87.6384,180.165 83.5,255.5C 88.325,335.125 127.658,389.625 201.5,419C 199.046,437.082 196.879,455.248 195,473.5C 140.726,458.93 97.7264,428.263 66,381.5C 22.2842,310.811 16.6175,237.145 49,160.5C 76.9341,103.235 120.767,63.402 180.5,41C 194.019,36.4032 207.686,32.9032 221.5,30.5 Z"/></g>
<g><path style="opacity:0.976" fill="#000000" d="M 316.5,36.5 C 397.609,61.7758 450.442,115.109 475,196.5C 493.861,276.574 476.527,347.574 423,409.5C 386.093,448.87 340.926,472.203 287.5,479.5C 298.078,458.011 308.911,436.677 320,415.5C 387.454,383.639 423.287,330.305 427.5,255.5C 422.848,176.051 383.681,121.717 310,92.5C 311.831,73.8534 313.998,55.1867 316.5,36.5 Z"/></g>
</svg>
