<?xml version="1.0" encoding="UTF-8"?>
<!DOCTYPE svg PUBLIC "-//W3C//DTD SVG 1.1//EN" "http://www.w3.org/Graphics/SVG/1.1/DTD/svg11.dtd">
<svg xmlns="http://www.w3.org/2000/svg" version="1.1" width="512px" height="512px" style="shape-rendering:geometricPrecision; text-rendering:geometricPrecision; image-rendering:optimizeQuality; fill-rule:evenodd; clip-rule:evenodd" xmlns:xlink="http://www.w3.org/1999/xlink">
<g><path style="opacity:0.991" fill="#d19c15" d="M 162.5,31.5 C 224.501,31.3333 286.501,31.5 348.5,32C 377.519,37.3514 398.019,53.5181 410,80.5C 412.277,86.3315 413.944,92.3315 415,98.5C 415.667,170.833 415.667,243.167 415,315.5C 407.922,350.081 387.422,372.415 353.5,382.5C 368.865,407.368 384.032,432.368 399,457.5C 401.364,464.878 399.864,471.378 394.5,477C 385.317,482.499 377.15,481.332 370,473.5C 364.833,465 359.667,456.5 354.5,448C 288.5,447.333 222.5,447.333 156.5,448C 150.578,458.516 143.911,468.516 136.5,478C 128.187,482.023 120.687,480.857 114,474.5C 110.425,469.145 109.758,463.478 112,457.5C 126.968,432.368 142.135,407.368 157.5,382.5C 126.1,373.267 105.933,352.934 97,321.5C 95.3519,247.197 95.0186,172.864 96,98.5C 104.082,62.0676 126.248,39.7343 162.5,31.5 Z M 175.5,79.5 C 228.834,79.3333 282.168,79.5 335.5,80C 354.667,81.8333 365.167,92.3333 367,111.5C 367.667,143.5 367.667,175.5 367,207.5C 365.167,226.667 354.667,237.167 335.5,239C 282.167,239.667 228.833,239.667 175.5,239C 156.333,237.167 145.833,226.667 144,207.5C 143.333,175.5 143.333,143.5 144,111.5C 146.011,92.3232 156.511,81.6566 175.5,79.5 Z M 170.5,288.5 C 187.765,288.257 193.598,296.257 188,312.5C 181.749,319.011 174.582,320.177 166.5,316C 159.989,309.749 158.823,302.582 163,294.5C 165.114,291.879 167.614,289.879 170.5,288.5 Z M 330.5,288.5 C 347.765,288.257 353.598,296.257 348,312.5C 341.749,319.011 334.582,320.177 326.5,316C 319.989,309.749 318.823,302.582 323,294.5C 325.114,291.879 327.614,289.879 330.5,288.5 Z M 195.5,383.5 C 235.501,383.333 275.501,383.5 315.5,384C 321.833,394.333 328.167,404.667 334.5,415C 281.833,415.667 229.167,415.667 176.5,415C 183.086,404.597 189.42,394.097 195.5,383.5 Z"/></g>
</svg>
