<?xml version="1.0" encoding="UTF-8"?>
<!DOCTYPE svg PUBLIC "-//W3C//DTD SVG 1.1//EN" "http://www.w3.org/Graphics/SVG/1.1/DTD/svg11.dtd">
<svg xmlns="http://www.w3.org/2000/svg" version="1.1" width="512px" height="512px" style="shape-rendering:geometricPrecision; text-rendering:geometricPrecision; image-rendering:optimizeQuality; fill-rule:evenodd; clip-rule:evenodd" xmlns:xlink="http://www.w3.org/1999/xlink">
<g><path style="opacity:0.984" fill="#d19c15" d="M 385.5,-0.5 C 388.167,-0.5 390.833,-0.5 393.5,-0.5C 425.974,27.4595 458.974,54.9595 492.5,82C 495.366,86.221 494.699,89.8876 490.5,93C 459.168,93.5 427.835,93.6666 396.5,93.5C 396.5,105.833 396.5,118.167 396.5,130.5C 391.833,130.5 387.167,130.5 382.5,130.5C 382.5,118.167 382.5,105.833 382.5,93.5C 351.498,93.6666 320.498,93.5 289.5,93C 285.301,89.8876 284.634,86.221 287.5,82C 320.865,55.1767 353.531,27.6767 385.5,-0.5 Z"/></g>
<g><path style="opacity:0.999" fill="#d19c15" d="M 96.5,40.5 C 150.168,40.3333 203.834,40.5 257.5,41C 258.333,41.8333 259.167,42.6667 260,43.5C 260.5,72.4981 260.667,101.498 260.5,130.5C 204.833,130.5 149.167,130.5 93.5,130.5C 93.3334,101.498 93.5,72.4981 94,43.5C 95.045,42.6266 95.8783,41.6266 96.5,40.5 Z"/></g>
<g><path style="opacity:0.968" fill="#d19c15" d="M 274.5,106.5 C 285.896,106.091 297.23,106.591 308.5,108C 310.487,109.319 311.654,111.152 312,113.5C 313.269,119.111 314.102,124.778 314.5,130.5C 301.167,130.5 287.833,130.5 274.5,130.5C 274.5,122.5 274.5,114.5 274.5,106.5 Z"/></g>
<g><path style="opacity:0.999" fill="#d19c15" d="M 486.5,511.5 C 331.167,511.5 175.833,511.5 20.5,511.5C 19.8783,510.373 19.045,509.373 18,508.5C 17.3333,388.167 17.3333,267.833 18,147.5C 18.8333,146.667 19.6667,145.833 20.5,145C 175.833,144.333 331.167,144.333 486.5,145C 487.333,145.833 488.167,146.667 489,147.5C 489.667,267.833 489.667,388.167 489,508.5C 487.955,509.373 487.122,510.373 486.5,511.5 Z M 31.5,158.5 C 43.5,158.5 55.5,158.5 67.5,158.5C 67.5,184.5 67.5,210.5 67.5,236.5C 55.5,236.5 43.5,236.5 31.5,236.5C 31.5,210.5 31.5,184.5 31.5,158.5 Z M 81.5,158.5 C 100.833,158.5 120.167,158.5 139.5,158.5C 139.5,184.5 139.5,210.5 139.5,236.5C 120.167,236.5 100.833,236.5 81.5,236.5C 81.5,210.5 81.5,184.5 81.5,158.5 Z M 153.5,158.5 C 172.5,158.5 191.5,158.5 210.5,158.5C 210.5,184.5 210.5,210.5 210.5,236.5C 191.5,236.5 172.5,236.5 153.5,236.5C 153.5,210.5 153.5,184.5 153.5,158.5 Z M 224.5,158.5 C 243.5,158.5 262.5,158.5 281.5,158.5C 281.5,184.5 281.5,210.5 281.5,236.5C 262.5,236.5 243.5,236.5 224.5,236.5C 224.5,210.5 224.5,184.5 224.5,158.5 Z M 295.5,158.5 C 314.833,158.5 334.167,158.5 353.5,158.5C 353.5,184.5 353.5,210.5 353.5,236.5C 334.167,236.5 314.833,236.5 295.5,236.5C 295.5,210.5 295.5,184.5 295.5,158.5 Z M 367.5,158.5 C 386.5,158.5 405.5,158.5 424.5,158.5C 424.5,184.5 424.5,210.5 424.5,236.5C 405.5,236.5 386.5,236.5 367.5,236.5C 367.5,210.5 367.5,184.5 367.5,158.5 Z M 438.5,158.5 C 450.833,158.5 463.167,158.5 475.5,158.5C 475.5,184.5 475.5,210.5 475.5,236.5C 463.167,236.5 450.833,236.5 438.5,236.5C 438.5,210.5 438.5,184.5 438.5,158.5 Z M 118.5,286.5 C 208.167,286.333 297.834,286.5 387.5,287C 391.333,287.5 393.5,289.667 394,293.5C 394.667,302.833 394.667,312.167 394,321.5C 393.654,323.848 392.487,325.681 390.5,327C 385.934,328.309 381.267,328.809 376.5,328.5C 376.667,370.168 376.5,411.835 376,453.5C 375.5,457.333 373.333,459.5 369.5,460C 291.833,460.667 214.167,460.667 136.5,460C 132.667,459.5 130.5,457.333 130,453.5C 129.5,411.835 129.333,370.168 129.5,328.5C 124.733,328.809 120.066,328.309 115.5,327C 113.462,325.764 112.295,323.931 112,321.5C 111.333,312.167 111.333,302.833 112,293.5C 112.682,289.656 114.848,287.322 118.5,286.5 Z"/></g>
<g><path style="opacity:1" fill="#d19c15" d="M 93.5,172.5 C 104.167,172.5 114.833,172.5 125.5,172.5C 125.5,189.167 125.5,205.833 125.5,222.5C 114.833,222.5 104.167,222.5 93.5,222.5C 93.5,205.833 93.5,189.167 93.5,172.5 Z"/></g>
<g><path style="opacity:1" fill="#d19c15" d="M 167.5,172.5 C 177.167,172.5 186.833,172.5 196.5,172.5C 196.5,189.167 196.5,205.833 196.5,222.5C 186.833,222.5 177.167,222.5 167.5,222.5C 167.5,205.833 167.5,189.167 167.5,172.5 Z"/></g>
<g><path style="opacity:1" fill="#d19c15" d="M 238.5,172.5 C 245.833,172.5 253.167,172.5 260.5,172.5C 260.5,189.167 260.5,205.833 260.5,222.5C 253.167,222.5 245.833,222.5 238.5,222.5C 238.5,205.833 238.5,189.167 238.5,172.5 Z"/></g>
<g><path style="opacity:0.964" fill="#d19c15" d="M 309.5,172.5 C 313.5,172.5 317.5,172.5 321.5,172.5C 323.834,189.169 326.167,205.835 328.5,222.5C 322.167,222.5 315.833,222.5 309.5,222.5C 309.5,205.833 309.5,189.167 309.5,172.5 Z"/></g>
<g><path style="opacity:1" fill="#d19c15" d="M 382.5,172.5 C 387.167,172.5 391.833,172.5 396.5,172.5C 396.5,189.167 396.5,205.833 396.5,222.5C 391.833,222.5 387.167,222.5 382.5,222.5C 382.5,205.833 382.5,189.167 382.5,172.5 Z"/></g>
<g><path style="opacity:1" fill="#d19c15" d="M 125.5,300.5 C 210.5,300.5 295.5,300.5 380.5,300.5C 380.5,305.167 380.5,309.833 380.5,314.5C 295.5,314.5 210.5,314.5 125.5,314.5C 125.5,309.833 125.5,305.167 125.5,300.5 Z"/></g>
<g><path style="opacity:1" fill="#d19c15" d="M 143.5,328.5 C 177.833,328.5 212.167,328.5 246.5,328.5C 246.5,367.833 246.5,407.167 246.5,446.5C 212.167,446.5 177.833,446.5 143.5,446.5C 143.5,407.167 143.5,367.833 143.5,328.5 Z"/></g>
<g><path style="opacity:1" fill="#d19c15" d="M 260.5,328.5 C 294.5,328.5 328.5,328.5 362.5,328.5C 362.5,367.833 362.5,407.167 362.5,446.5C 328.5,446.5 294.5,446.5 260.5,446.5C 260.5,407.167 260.5,367.833 260.5,328.5 Z"/></g>
</svg>
