<?xml version="1.0" encoding="UTF-8"?>
<!DOCTYPE svg PUBLIC "-//W3C//DTD SVG 1.1//EN" "http://www.w3.org/Graphics/SVG/1.1/DTD/svg11.dtd">
<svg xmlns="http://www.w3.org/2000/svg" version="1.1" width="512px" height="512px" style="shape-rendering:geometricPrecision; text-rendering:geometricPrecision; image-rendering:optimizeQuality; fill-rule:evenodd; clip-rule:evenodd" xmlns:xlink="http://www.w3.org/1999/xlink">
<g><path style="opacity:0.959" fill="#000000" d="M 250.5,62.5 C 266.772,61.0866 279.939,66.7533 290,79.5C 294.55,87.0504 300.717,92.8837 308.5,97C 316.817,96.649 325.151,96.649 333.5,97C 348.826,102.474 354.66,113.308 351,129.5C 350.108,132.952 348.442,135.952 346,138.5C 345.333,144.833 345.333,151.167 346,157.5C 359.225,199.773 349.725,235.94 317.5,266C 286.53,289.365 252.863,294.032 216.5,280C 174.623,258.76 155.789,224.593 160,177.5C 161.039,170.677 162.706,164.01 165,157.5C 165.667,152.167 165.667,146.833 165,141.5C 159.759,133.258 158.092,124.258 160,114.5C 166.818,97.6772 178.985,92.0105 196.5,97.5C 201.982,96.4253 206.982,94.2587 211.5,91C 216.698,84.2898 222.364,77.9565 228.5,72C 235.288,67.3559 242.621,64.1892 250.5,62.5 Z M 250.5,85.5 C 256.105,84.9081 261.439,85.7415 266.5,88C 273.033,96.0456 280.033,103.712 287.5,111C 295.053,116.739 303.553,119.906 313,120.5C 317.718,119.065 322.551,118.565 327.5,119C 330.215,122.72 329.215,125.387 324.5,127C 277.121,127.98 229.788,127.647 182.5,126C 180.987,123.084 181.32,120.418 183.5,118C 198.859,121.528 212.859,118.528 225.5,109C 231.636,103.044 237.302,96.7102 242.5,90C 245.099,88.205 247.766,86.705 250.5,85.5 Z M 187.5,149.5 C 232.833,149.5 278.167,149.5 323.5,149.5C 323.677,151.981 322.677,153.814 320.5,155C 292.86,169.38 263.526,174.38 232.5,170C 216.663,167.833 201.996,162.499 188.5,154C 187.62,152.644 187.286,151.144 187.5,149.5 Z M 182.5,177.5 C 185.508,178.42 188.341,179.754 191,181.5C 191.31,196.118 196.477,208.618 206.5,219C 215.401,223.724 224.734,224.724 234.5,222C 240.103,219.45 244.603,215.617 248,210.5C 251.06,205.049 253.56,199.383 255.5,193.5C 258.3,204.288 263.966,213.122 272.5,220C 294.922,228.539 309.755,221.372 317,198.5C 318.807,192.631 319.641,186.631 319.5,180.5C 322.354,180.076 325.021,179.076 327.5,177.5C 332.604,213.125 319.604,239.959 288.5,258C 253.78,272.276 223.613,265.776 198,238.5C 184.233,220.433 179.066,200.1 182.5,177.5 Z M 214.5,190.5 C 214.56,189.957 214.893,189.624 215.5,189.5C 220.751,190.987 226.085,192.154 231.5,193C 230,196.998 227.334,199.831 223.5,201.5C 221.813,201.24 220.313,200.573 219,199.5C 217.199,196.563 215.699,193.563 214.5,190.5 Z M 294.5,189.5 C 295.124,189.917 295.457,190.584 295.5,191.5C 291.215,204.075 285.881,204.575 279.5,193C 284.729,192.248 289.729,191.081 294.5,189.5 Z"/></g>
<g><path style="opacity:0.947" fill="#000000" d="M 198.5,292.5 C 205.441,294.464 212.108,297.298 218.5,301C 238.757,308.034 259.423,309.367 280.5,305C 290.981,301.506 301.148,297.34 311,292.5C 345.345,305.727 379.845,318.56 414.5,331C 431.283,337.447 442.116,349.28 447,366.5C 454.693,407.798 462.193,449.131 469.5,490.5C 467.394,499.889 461.727,503.055 452.5,500C 450.274,498.773 448.774,496.939 448,494.5C 440.345,454.903 433.011,415.236 426,375.5C 423.877,364.043 417.377,356.209 406.5,352C 374.837,341 343.503,329.167 312.5,316.5C 274.493,335.128 236.493,335.128 198.5,316.5C 164.636,329.177 130.969,342.343 97.5,356C 90.4518,360.584 86.2851,367.084 85,375.5C 77.8819,415.542 70.5486,455.542 63,495.5C 58.1959,501.794 52.3626,502.961 45.5,499C 41.0461,493.767 40.2127,487.934 43,481.5C 50,443.167 57,404.833 64,366.5C 68.476,350.021 78.6427,338.521 94.5,332C 129.316,318.9 163.982,305.733 198.5,292.5 Z"/></g>
</svg>
