<?xml version="1.0" encoding="UTF-8"?>
<!DOCTYPE svg PUBLIC "-//W3C//DTD SVG 1.1//EN" "http://www.w3.org/Graphics/SVG/1.1/DTD/svg11.dtd">
<svg xmlns="http://www.w3.org/2000/svg" version="1.1" width="512px" height="512px" style="shape-rendering:geometricPrecision; text-rendering:geometricPrecision; image-rendering:optimizeQuality; fill-rule:evenodd; clip-rule:evenodd" xmlns:xlink="http://www.w3.org/1999/xlink">
<g><path style="opacity:0.94" fill="#d19c15" d="M 232.5,6.5 C 237.742,6.02272 242.742,6.85605 247.5,9C 302.667,64.1667 357.833,119.333 413,174.5C 414.676,186.155 409.843,190.322 398.5,187C 348.167,136.667 297.833,86.3333 247.5,36C 240.833,31.3333 234.167,31.3333 227.5,36C 177.167,86.3333 126.833,136.667 76.5,187C 65.1571,190.41 60.3238,186.243 62,174.5C 117.167,119.333 172.333,64.1667 227.5,9C 229.315,8.24316 230.981,7.40982 232.5,6.5 Z"/></g>
<g><path style="opacity:0.943" fill="#d19c15" d="M 120.5,25.5 C 125.248,25.2748 129.915,25.7748 134.5,27C 135.667,28.1667 136.833,29.3333 138,30.5C 139.615,44.7646 139.948,59.0979 139,73.5C 130,82.5 121,91.5 112,100.5C 111.333,77.5 111.333,54.5 112,31.5C 113.943,28.122 116.776,26.122 120.5,25.5 Z"/></g>
<g><path style="opacity:0.982" fill="#d19c15" d="M 234.5,53.5 C 238.131,53.1604 241.464,53.9937 244.5,56C 284.361,95.5276 323.861,135.361 363,175.5C 363.667,191.167 363.667,206.833 363,222.5C 361.833,225 360,226.833 357.5,228C 313.797,240.036 284.63,267.536 270,310.5C 269.167,311.333 268.333,312.167 267.5,313C 259.579,314.568 251.579,314.901 243.5,314C 241.376,312.878 239.543,311.378 238,309.5C 237.667,277.833 237.333,246.167 237,214.5C 235.695,205.864 230.862,200.364 222.5,198C 201.436,197.034 180.436,197.368 159.5,199C 154.243,201.256 150.743,205.09 149,210.5C 148.667,242.833 148.333,275.167 148,307.5C 147.167,311 145,313.167 141.5,314C 133.5,314.667 125.5,314.667 117.5,314C 115,312.833 113.167,311 112,308.5C 111.333,264.167 111.333,219.833 112,175.5C 152.062,133.937 192.896,93.2708 234.5,53.5 Z"/></g>
<g><path style="opacity:0.969" fill="#d19c15" d="M 165.5,214.5 C 183.833,214.5 202.167,214.5 220.5,214.5C 220.97,246.216 220.47,277.883 219,309.5C 217.773,311.726 215.939,313.226 213.5,314C 199.5,314.667 185.5,314.667 171.5,314C 169.376,312.878 167.543,311.378 166,309.5C 165.5,277.835 165.333,246.168 165.5,214.5 Z"/></g>
<g><path style="opacity:0.973" fill="#d19c15" d="M 375.5,241.5 C 419.283,239.472 452.783,256.805 476,293.5C 494.557,329.564 493.89,365.231 474,400.5C 442.035,444.71 399.868,458.543 347.5,442C 305.805,423.481 283.805,391.314 281.5,345.5C 284.774,294.739 310.441,261.239 358.5,245C 364.301,243.816 369.968,242.649 375.5,241.5 Z M 382.5,269.5 C 390.487,268.911 396.653,271.911 401,278.5C 413.555,303.611 423.888,329.611 432,356.5C 438.762,388.149 426.928,409.316 396.5,420C 370.177,423.59 351.344,413.424 340,389.5C 338.279,384.122 337.112,378.622 336.5,373C 343.629,339.616 355.129,307.782 371,277.5C 374.15,273.689 377.983,271.023 382.5,269.5 Z"/></g>
<g><path style="opacity:0.967" fill="#d19c15" d="M 80.5,259.5 C 85.1667,259.5 89.8333,259.5 94.5,259.5C 94.5,271.833 94.5,284.167 94.5,296.5C 75.9412,295.357 64.1078,303.691 59,321.5C 58.3333,361.167 58.3333,400.833 59,440.5C 62.8278,456.488 72.9945,465.155 89.5,466.5C 102.926,464.715 112.426,457.715 118,445.5C 119.717,435.518 121.384,425.518 123,415.5C 138.25,377.455 166.083,362.289 206.5,370C 233.265,378.763 249.432,396.93 255,424.5C 255.667,437.167 255.667,449.833 255,462.5C 253.238,465.268 250.738,466.768 247.5,467C 239.436,467.863 231.436,467.53 223.5,466C 221.951,464.786 220.785,463.286 220,461.5C 219.667,452.167 219.333,442.833 219,433.5C 213.8,409.481 199.3,400.647 175.5,407C 166.48,411.523 160.646,418.69 158,428.5C 158.433,460.833 144.267,483.999 115.5,498C 85.649,508.245 59.8156,502.078 38,479.5C 29.1291,468.752 23.7958,456.419 22,442.5C 21.3333,401.167 21.3333,359.833 22,318.5C 28.3464,285.654 47.8464,265.987 80.5,259.5 Z"/></g>
<g><path style="opacity:0.964" fill="#d19c15" d="M 385.5,286.5 C 398.384,310.286 408.551,335.286 416,361.5C 420.581,386.348 410.414,400.681 385.5,404.5C 366.732,402.232 356.066,391.732 353.5,373C 360.31,342.735 370.977,313.902 385.5,286.5 Z"/></g>
<g><path style="opacity:0.974" fill="#d19c15" d="M 271.5,511.5 C 248.833,511.5 226.167,511.5 203.5,511.5C 198.947,507.676 197.78,503.009 200,497.5C 202.5,493.667 205,489.833 207.5,486C 217.405,484.857 227.405,484.357 237.5,484.5C 247.595,484.357 257.595,484.857 267.5,486C 271.421,491.009 274.421,496.509 276.5,502.5C 276.079,506.24 274.412,509.24 271.5,511.5 Z"/></g>
</svg>
